<!-- 
<svg width="100%" height="600px">
	<g id="carte"> -->

		<svg width="100%" height="600px">
	<g>
		<a href="amerique-du-sud.html">
			<path id="Z1" title="Amérique-du-Sud" d=
				"M178.925,24.825h-1l-2.6,0.5l-1.5,1l-1.2,1.6l1.7,0.8v1.6l-2.2,1h-1.3l-1,0.8v0.6l-0.6,0.6l-0.9-0.7   l1.7-1.3l-1.3-0.6l-0.4-0.2l-1.7,0.5l1,1.2h-0.9l-0.7-0.5h-1.8l-3.5,0.4l-1-0.7h-1.4l-0.5-1.1h-0.1l-0.4,0.2l-0.3,0.1l-4.1,1.2   l-0.6,1.7l-1,0.8l-1-2.8l-4.2,0.8l-3.1-0.7l2.8-1.3l-1.6-0.7h-2.4l-3.5-1.5h-1.6l-1.4,0.9h-1.1l0.6-1.3l-3.3,1.3v-2.1l-0.9,0.6   l-2.2,0.8v-0.8l-5.4,0.8l-1.7,0.7l-4.6,0.8h-1l-1.6-1h-2.4l-2.3-1.2l-2.1,0.3l-3.7-0.8l-3.5,0.5l-1.3-0.7l0.7-0.9l-1.8,0.9   l-2.2-1.3l-4.1,1.4l-1.7-0.5l-2.9,0.8h-1.4l-7.7,2.7l-1.5-0.2l-1.9,1l1.2,1.1l-0.6,1.1h2.3l-0.5,0.6l1.6,0.2l-0.5,0.8l-1.3-0.3   l-0.7,0.5l-2.8,0.4h-1.3v-0.7l1.2-0.5l-3.2,0.2l-0.3,1l-1.6-0.4l-3.1,0.7v0.4l1.6,0.3l-0.1,0.4l-1.2,0.1l-0.3,0.9l4.2,0.4l3.8-1.1   l-0.2,0.8l-1.5,0.3l-0.7,1.2l-1.9,0.8l-1.2-0.6l-1.3,0.9l-1.4,0.2l-1.2-0.3l-0.4,0.6l-0.6-0.2l-1.1,1.2l-0.4-0.3l-3.8,1.8l-0.4,1   l1.1,0.3h1.1l-0.3,0.5l-1.7-0.4l-1.2,0.6l0.1,1.3l2.7-0.3l0.6-0.7l0.7-0.1l-0.9,0.9l-0.5,1.1h-0.9l-0.6,1l-0.9,0.5l2.2-0.4l0.9-0.5   l0.2,0.5l0.7-0.1v0.8l1.6-0.9v0.7h1.1l-2.5,1.8l-14.8,5.6l6.9-1.6l17.3-6.4l-1-0.5l8-3.4l-0.5,0.9l-3.5,2.5l7.1-1.8l1.2-0.7v-0.7   h1.7l2-0.6l-0.8,0.7l0.5,0.7l1.7,0.8l1.3-0.5l2.8,0.5l1.7,0.8l1,2.5l2.3-0.2h0.6l1.2-1.3l-0.3,1.7l0.6,0.5l-0.6,2l-0.6,4h0.9   l-1.3,1.1l-0.4,1.3l-0.2,2.1l0.8,0.9l-1.6,2v0.6l2.9,0.9l0.8,2l1.2-0.3l-0.8,1.3h0.7l-0.6,2.1l-1,1.2l-1.5,0.6l1.8-2l-1.3-0.2   l-1.5-0.5l-0.5,0.9l-0.6,2.3l-1.6,2.8l-3.5,4.5l-1.1,0.9l-0.6,1.6l-0.3,1.4l-1.3,1.7l-0.7,0.7l0.4,1.1l-0.7,1.8l0.6,2.1l0.9-0.5   l-0.4,1.5l-0.4-0.5l-0.3,1.3l0.7,0.6l-0.7,0.9l1,2.7l-0.5,1l2,0.5l1.7,1.3l0.9,1.1l-0.2,1.4l0.1,1l0.2,0.6l-0.2,0.4l0.4,1.8   l-0.2,0.7l0.2,0.4l-0.1,0.7l1.4,1.5l0.7,1.7l-0.6,0.8l0.5,0.7l-0.3,0.4l-0.5-0.6h-1.3l0.8,1.1l1.2,1.1l0.5-0.1l0.4-0.3v0.4l0.4,0.8   l0.7,0.4l0.1,1.2l-0.5,1.4l2.9,3l0.1,0.9l0.3,0.2l1.1-0.8l-0.5-0.7l-0.1-0.7l-0.7-0.6l-0.1,0.3l-0.5-0.3l-0.1-0.6l0.2-0.6l-0.2-0.7   l-0.1-0.7l-0.2-0.4l-0.1-1.9l-1.5-2.5l0.2-1.3l-0.4-0.3l-0.2-0.7h-0.3v-0.8l-1.1-1.5l0.3-1.7v-0.7l0.5-1.1l-0.3-0.7l1.3,1l0.6-0.2   l0.3,0.5l0.8,0.4l-0.4,1.2l0.4,2.6l0.3,0.3l-0.1,0.5l0.4,1l1.1,1.4l0.6-0.1l-0.2,0.5l0.1,0.9l0.8,0.4v0.7l0.6,0.1l0.5,0.8l-0.6,0.4   l-0.3,0.7l2.1,1.4v0.9l1.2,1.3l2,3.2v1.3l0.6,1.2l-0.8,1.2l0.4,0.3l-0.7,0.4l-0.2,0.7l0.7,1.5l2.1,1.3l0.6,1.1l1.9,0.7l0.7-0.1   l1.1,1.3l2.7,1.4l1.6,0.5l1.5,1l2,0.6h0.9l2.4-1.1l0.1-0.3l0.6,0.2l-0.2,0.2l0.6,0.1l-0.1-0.3l0.6,0.2l2.2,2.3l0.8,1.2l0,0l0.2-0.8   l0.2-0.3l-0.2-0.3l0.9-1.8h0.2h2.3l0.1-0.8l-0.3-0.2v-0.3l-1.3-1.2h0.6l0.3-0.1v-0.5l0.1-0.5l0.3-0.2l0.9,0.1h2.2l0.3-0.4l0.3,0.2   l0.8-1.2h0.4l0.5-0.7l0.2,1.2l1-2.7h-0.3l0.6-0.9v-0.7l1.6-1.6l-0.1-0.8l-0.3-0.3l-0.7,0.2l-1.7-0.2l-1,0.3l-1.9,0.3l-0.7,0.3   l-0.6,1.5v0.9l-0.6,0.6l-0.4,1l-1.3,0.8l0.4,0.4l-0.6,0.4h-0.6l-0.2-0.5l-1,0.1l-0.3,0.4h-1.2l-2.1,0.7l-0.6-0.7l-0.7-0.5h-0.8   l-0.5-0.3l-0.8-2.4l-0.7-1.4l-0.4-1.4l0.2-0.5l-0.5-0.9v-1l1-3.8l1.5-3.7l-0.1-0.4l-0.1-1.5l1.5-2.3l1.4-0.9l0.1-0.6l0.6,0.2   l1.4-0.5l2.5-1.7l1.8-0.4l1,0.6h1l0.7-0.5l1.4,1.4h1.1l0.4-1l1,1.5l0.6-0.5l-0.8-0.9l0.7-0.8l-0.7-0.2l-1-0.2l0.5-0.5l0.8,0.3   l1.4-0.3h1.3l0.5-0.8v1.2l2.3-0.5l1.8,0.5l0.2,1.1l2-1l0.9,0.3l0.8,1.4l0.6,0.4l0.1,0.9l-0.8,1.8l0.4,2h0.5l0.2,1.8l0.6,0.4   l0.3,1.4l1.2-0.1l0.9-1.7l0.3-1.8l-0.2-1.9l0.1-1.6l-0.6-2.1v-2.5l0.8-1.5l1.4-1.5l3-1.9l1.4-1.5l1.3-0.3l1.5-1.2l2.2-0.8l-0.4-1.1   l0.9,0.1l1-0.6l0.5-2.4l-0.6-0.6l-0.1-0.6l0.4-0.2l0.3-0.9l-1.2-1.3l1.3,0.8l0.5-2.4l0.5-0.4v0.5l-0.5,1.8l0.5,0.7l-1,1.7l2.6-2.7   l-0.3-2.2l0.8,0.7l-0.1,0.6l2.3-2.2l0.4-0.9l-0.3-0.4l0.9-0.7l2-0.7l4.3-0.6l1.2-0.7l-0.9,0.2l-0.8-1.3l0.8-0.5l1.7-2.2l1.4-0.2   l1.7-1.6l0.2,0.6l2.9-1l0.2-0.8l0,0l1.2,0.1l2.1-0.6l3.2,0.2l-2,0.2l-2.3,0.8l-1.6,1.6l0.1,0.7l0.8,0.4l0.8-0.4l2.6-2l0.5,0.5   l4.6-1.8l-0.3-0.5l-0.5-0.5l-1.2,0.3l-2.3-0.7l0.4-0.4l-1.1-0.2l0.1-1.7h-0.7l2-1.6l-2.1,0.5l-0.5-0.7h-1.1l0.6-0.4h1.1l0.9,0.3   l2-0.9l0.5-0.8l-0.6-0.5l-1.3-0.4l-3.9,0.9l-2.4,1.1l-2.9,2.2l-2.4,1.1l5.2-4l1.4-0.9l1.9-0.5l2.3-1.9h10.5l2.9-1.9l2.1-0.6h1   l2.4-1.4l-0.5-0.6l1.2-1.3l-0.4-0.8h-2l0.7-1.1l-3.5,0.5l3.8-1.5l-3.7-1.2l-1.6-1.9v-0.8l1.6-1l-0.5-1l-1.4-5.3l-1.6,1.2l-0.7,1.2   l-1.5,0.5l-0.8,0.5l-2.2,1l-0.7-0.5v-1.3l-1.9,0.5l1.1-0.9l1.7-3.2l-2.6-0.8l0.6-0.8l-1.9-1.3l-2,0.6l-3.9-1l-1.4,1.2l0.5,0.7   l-1.5,1.4v1.7l-3.1,1.9l-0.5,0.7l0.7,0.6l0.7,1.1l-0.4,1.9l-2.2,2l-2.9,1.4l-2.6,0.6l0.4,1.5l-1,3.2l-1.1,1.1l-1,0.4l-1.2,1.2   l-0.8-0.7v-0.9l-1-0.7l0.4-0.5l-0.7-0.9l1.3-1.8v-0.8l1.4-1.7l-0.9-0.4h-3.5v-0.6l-2.7-0.8v-0.5l-0.9-1.1l-2.8-1l-3.1,0.7l1.1-1   l0.8-2.5h-1.7l-0.6-0.6l2.4-2.7l1.1-0.5l6.1-4.1h1.6l1.4-0.7l-0.7-0.9h1.7l1.6-0.7h1.8l3.2-1.5v-0.8l3.2-1.6l-0.7-0.5h2.1l0.8,0.4   h1.1v-1.4l0.6,1.3l3.8-1.5l0.8-0.8l-0.5-0.6v-1.3h1.9l1-1.3h-1.1v-0.6l-1.8-0.3h-1.8l-0.8,0.8v1.1h-1.1l-0.9,1l-1.4,0.6l-0.6,0.6   l-1.7,0.8l-0.4-1.3l0.6-0.8h0.6l0.6-1.1l-1-0.8l-2.1,1.7h-0.9l1.9-1.9l-2.9-0.5l2.5-0.9l-0.6-0.9l0.6-0.8L178.925,24.825z M284.125,11.125l0.8-0.2l-1.5-0.1l-1.3,0.1l0.8-0.4l2.2,0.1l1.7-0.2l-0.4-0.2l1.3-0.1l2.4-0.7l-1-0.1   l-4.2-0.3l-1,0.2l-0.7,0.4l-1.6-0.1l-0.9,0.2l0.1-0.3l-0.7,0.1l-3.6,1l1.9-0.9l0.5-0.3l-0.2-0.5l-2,0.1l-0.4,0.4l-3.7,0.5l2.8-0.9   h-3.3l6.5-0.4l1.5-0.3l-2.7-0.4l-1.1,0.1v-0.3l-0.6-0.3l-9.8-0.4l-2,0.4l-2.5-0.1l0.8,0.3l-1.3,0.3h-1.7l-2.2-0.4l-4.6,0.2l2.6,0.8   l-2.4-0.3l-1.7,0.1l3.1,0.9l-1.1,0.2l-3.3-0.8l-0.5-0.2h-2.1l0.1,0.4l1.1,0.3l-0.5,0.1l-1.3-0.1l-1.5-0.5l-0.6,0.3v0.3l-1.1,0.5   l0.6-0.8l-0.3-0.3l-1.6,0.1h-0.6l-0.4,0.1l-0.3-0.1l-6.1,0.7l0.5,0.3l-0.8,0.2v0.3l-0.7,0.1l-0.6-0.2l-3.2,0.3l-1.3,0.5l-1.6,0.1   l-1.1,0.3l0.1,0.4l0.7-0.1l0.5,0.2l2.3-0.4l-1.3,0.5l-0.5,0.5l-1.7,0.6l-1.3,0.1l-0.3-0.1l-0.8,0.2h-0.9l-1.4,0.3l-1.8,0.2   l-0.2,0.2l-0.6-0.1l-1.6,0.2l-1.2,0.5l0.9,0.4h0.8l0.7,0.5l1,0.2l1.2-0.2l-1.2,0.5l-0.6,0.2h-1.6l-1,0.2l0.5,0.3l1.6,0.3h1.5   l-2.4,0.5l1,0.4l2.1,0.2l-0.4-0.3l0.4-0.2l0.4,0.3l0.5-0.3l0.1,0.3l0.5,0.1l1.3-0.4l0.6,0.2l1.1-0.3l2.8,0.3v0.2h0.7l0.2,0.3h0.8   l0.7,0.2l-0.1,0.5l-0.4,0.2l0.1,0.4l1.1,0.3l0.6,0.6l-1.9,0.6h1.3l0.2,0.4l-0.3,0.3l0.6,0.5l-0.9,0.6l1.1,0.1l-0.6,0.7l-0.8,0.1   l0.5,0.3l-1.3,0.6l0.2,0.3l-0.8,0.2l0.4,0.6h0.6l1.2-0.2l0.4-0.5l0.4,0.1l0.5,0.5l-0.3,0.1l-0.2,0.2l0.2,0.2l1-0.1l0.4,0.2l0.5,0.4   v0.7h-0.7l-1-0.4l-0.7-0.2h-0.6l-0.8-0.1l-0.8,0.3l0.7,0.5l0.9,0.1l0.5,0.2l0.4,0.3h1.9l-0.9,0.6l0.1,0.3l0.3,0.1l-0.7,0.6   l-0.3,0.4l0.1,0.5l-0.9,0.2h-1.3l-1.7,1.1l-0.6,0.2l-0.7,0.6l-0.4,0.8l0.1,0.2h1.3l-1.6,0.8l-0.1,0.4l0.1,0.6h0.8l-1,0.4l-0.1,0.2   h0.8l0.4,0.5l-0.4,0.8v0.6l-0.3,0.3l0.2,0.3l1.4-1l0.7,0.4l-0.2,0.1l-0.7,0.4l-0.9,0.4l-0.4,0.7l0.5,0.6v0.4h0.6v1l-0.3,0.3   l0.8,0.5l-0.2,0.8l0.5,0.3l-0.2,0.4l1.3,0.7l-0.6,0.5l0.4,0.2l1.1-0.4l1.9-0.2l-0.5,0.5h0.5l-0.2,0.4l1-0.3l-0.5,1l0.5,0.2l0.7,0.1   l0.4,0.4l0.6-0.1l0.5-0.3l0.4,0.1l0.4-1l0.5-0.1l0.4-0.9l0.4-0.5l1.4-1.4l-0.1-0.5l-0.4-0.1l0.5-0.3l-0.4-0.4l0.3-0.3l0.8,0.2   l0.6-0.3l0.5-0.6l0.6-0.1l0.7-0.4l-0.1-0.3l0.6-0.1v-0.5l0.2-0.2l-1.1-0.2l-0.1-0.2l1.9-0.2l-0.7-0.8v-0.5l1,0.1l1-0.3l-0.2-0.7   l0.7-0.1h0.7l0.7,0.1l0.8-0.4l0.5-0.8l1.2-0.2l-1.1,0.5l-0.4,0.9l1.3-0.6l1.2-0.1h0.5l0.6-0.6l0.8,0.1l0.9-0.6l0.8-0.3l0.2-0.4   l0.8-0.3l0.8-1h0.6l0.4-0.3h0.5l0.4-0.5l0.5-0.2l0.8,0.4l0.8-0.1l0.7-0.3l0.3-0.3l0.5,0.3l1.2-0.3l3.2-0.5l0.3-0.2h0.3l0.8-0.4   l0.4-0.1l0.2-0.3l1.5-0.3l1.3-0.6l1.7-0.5l-2.3-0.1l-1.9-0.5l-1.2,0.3h-0.8l0.8-0.3l1.5-0.7l-0.3-0.3l0.5-0.7h1.1l0.4,0.6l-0.2,0.4   l0.2,0.2l0.8,0.4h1l1.5-0.2l-0.2-0.6l0.3-1l-1,0.4v-0.4l0.7-0.4l-0.5-0.4l-1.5-0.3l-0.8-0.5l-0.2-1l-1.3-0.4l1.5-0.1l2.2,0.1   l-1.3-0.6h0.6l0.5,0.3l1.3,0.3l1.1-0.4h1.4l0.4-0.5l-1.1-0.4l1.5-0.4h1.1l0.6-0.4l-0.4-0.4l-0.6,0.2l-0.3-0.7l-0.6-0.1l0.1-0.3   l1.3,0.3l0.5-0.5l-0.1-0.5l-0.4-0.4l0.5-0.3l-0.3-0.2l-2.1,0.1l0.2-0.4l-0.8-0.1l0.2-0.6l0.7,0.4l1.3-0.5l2,0.2l0.7,0.1l0.5-0.3   l-0.2-0.6l-0.6-0.1l-0.2,0.3l-0.4-0.1l-0.3-0.2h-1.2l0.2-0.3h1.5l0.5-0.1l-0.4-0.3l-1.1-0.1l-0.5-0.1l-1.4,0.7l-0.2-0.3l1.1-0.8   l0.5-0.9l1.6-0.1l0.9-0.5l-0.3-0.2l0.2-0.4l0.6-0.2h1.2l1-0.4l-0.5-0.1l-2.9,0.4l-0.2-0.4l1.1-0.2l1.5,0.1L284.125,11.125z M203.525,23.525l-0.5,0.1l-0.4-0.3h-1.1l-1.3,0.2l-0.5,0.4l-0.6,0.2l-0.4-0.3h-0.4l-1.3,0.4l1.1-0.9   l0.2-0.8l-0.6-0.2l0.4-0.4l-0.2-0.3l-1.6-0.1l-3.6,0.8l-0.3,0.3l-0.5,0.3h-0.6l-0.5,0.9l0.5,0.3l-0.7-0.1l-0.4,0.4h-0.8l0.5,0.6   l0.7,0.2v0.2l-0.7,0.3l-0.9-0.8l-0.1-0.5l0.5-0.4l0.4-0.2l-0.1-0.5l2.1-1.2l2-0.6l-0.4-0.1l-1.1-0.1l-1.5,0.2l-3.2,0.9l-1,0.8h-0.5   l-0.1,0.2h-0.4l-0.9,0.8l-0.7,0.4l0.1,0.3l-0.5,0.3l-0.3,0.4l2.6,0.2l0.7,0.5h-1.4l-0.7-0.1l-1.1-0.2l-0.2,0.6l0.1,0.4l1,0.6l1-0.3   h0.8l0.1,0.5l0.5,0.2l1.5-0.2l1.2,0.2l0.9-0.1l0.8,0.4l1.1-0.3l0.7,0.5l0.2-0.2l-0.6-0.3l0.5-0.2l2.8,0.4l0.4-0.2l0.1-0.4l-0.8-0.3   l0.9-0.3l0.5,0.6l0.7-0.1l-0.4,0.9l1.1-0.1l-0.4,0.3l0.5,0.4l0.8,0.3l-0.8,0.5l-0.4-0.2l-0.4,0.1l-0.5,0.6h0.3l1.4-0.4h0.6l0.5,0.4   l0.5,0.6l0.9,0.2l-0.1,0.5l0.1,1.3l-0.4,0.2l-0.7,0.2l-0.5,0.5h-0.3l-2.6,1.1l0.5,0.7v0.5l-0.8-0.1l-0.8,0.4l-0.7-0.1l-0.2,0.1   h-0.6l-0.5,0.2l-0.9-0.3l-0.8-0.2l-0.4,0.2v0.3l-1.5,0.4l-0.5,0.8l0.2,0.3l1.4,0.4l1.6-0.4l0.2-0.4l0.6,0.4h0.6l0.7-0.3l0.1,0.5   l0.7-0.5l0.8-0.1l-0.5,0.6l0.8,1h0.7l0.4,0.4l-0.7,0.3l-0.2,0.4l0.6,0.4l0.8,0.2l1.5,0.2l-0.4,0.2l0.3,0.4l0.5,0.1l0.2,0.3l1.6,0.1   l0.8,0.3l0.1,0.2h1l0.3-0.6l-0.5-0.1l-0.1-0.6l-0.5-0.3l-0.3-0.6l-0.8-0.2l-0.5-1h0.7l0.7,0.6l0.2-0.5l0.5,0.7l0.6,0.4l0.7,0.2   l0.4,0.2h0.3l0.1,0.6l0.4-0.2l-0.1-0.6l0.9,0.1v-1.2l0.1-0.2l0.2,0.8l0.3-0.1l0.3-0.7l-0.5-0.2l0.7-0.4l-1-0.5l0.9-0.4h-0.9   l0.5-0.5l-1.1-0.4l-0.3-0.8v-0.5h-0.8v-0.6l1.2,0.1l0.2-0.2l-0.5-0.4v-0.4l0.9,0.3l0.5-0.7l0.3,0.8h0.4l0.1,0.5h0.8l-0.5,0.4   l0.2,0.6l0.4,0.4l0.4-0.2l0.1,0.4l0.8,0.4l0.5-0.5l0.6-1.3l0.7,0.5l1.6-0.8l-0.2-0.5l1.2-0.1l0.6-0.4l-0.1-0.4l-0.5-0.4l-1.7,0.1   l0.7-0.6l-1.4,0.1l0.2-0.6l-0.4-0.8h-1.7l-0.4-0.7l-1.6-0.3l1.1-1.1h0.9l0.2,0.1l0.3-0.2l-0.5-0.4h-1l-0.7-0.3h0.5l0.6-0.3l1.1,0.2   l0.1-0.5l-0.4-0.5l-0.7,0.3l-0.5-0.2l0.9-0.6l-0.9-0.4h-0.3l-1,0.2l0.6-0.4l-1.4,0.2l0.7-0.5l-0.4-0.1l-0.8,0.4l-2.1,0.1l1.5-0.5   l0.6,0.1l0.7-0.3l-0.2-0.4l-1.1-0.4l-0.6,0.4l-0.6,0.4l-0.3-0.2l0.1-0.7h-0.4l0.1-0.5l-0.9-0.2l0.3-0.6L203.525,23.525z M235.325,8.725l0.5-0.3l-0.4-0.1l-1.4-0.1l-0.2-0.3l-1.2,0.1l-0.3-0.2l-0.5,0.2l-1.1-0.2l-2.8-0.2h-0.7   l-1.5-0.1l-0.9,0.1l-0.9-0.1l-1.6,0.3l-0.5-0.2h-3.4l1.1,0.6l-1.6-0.4l-0.4,0.1l-0.3-0.1h-1.4l-0.5,0.3l-1.6-0.2l0.7,0.3l-1.6-0.1   l-1,0.3l-0.5,0.4h-0.5v-0.3l-2.2-0.1l-1.6,0.4l-0.7,0.2l-0.3-0.2l-2.6,0.4l-1.1-0.2l-2.2,0.4l1.1,0.4l-0.2,0.2l0.5,0.4l1.6,0.4   l2.3-0.5l-1.4,0.5l0.6,0.1h2.6l1.3-0.4l1.9,0.4l-2.8,0.4l1.4,0.5l-0.9,0.5l-0.2-0.4l-1.1-0.6l-2.3-0.1l-0.8,0.1l-0.8,0.8l1.3,0.2   l0.5,0.5l1.1,0.5l-0.7,0.3l-0.8-0.2l-1.5-0.1l-2.4,0.2l-1.4,0.5l-0.6,0.5h2.4l1.9-0.7l-1.4,0.7l-0.9,0.3l-0.2,0.4l1.4,0.2l0.3,0.2   l-1.4,0.2l-1.2-0.3l0.2-0.4l-0.3-0.2h-2.1l-0.4,0.3v0.4l0.8,0.2l-1.2,0.3h-0.9l-1.8,0.3l-0.8,0.5l0.6,0.2l0.9-0.3l-0.3,0.3l1.1,0.2   l0.3-0.3l0.7,0.3l0.5-0.2l1.1,0.3l1-0.1l0.9-0.5l0.3,0.3h0.5l0.2-0.3l0.3,0.5l0.8-0.2l0.3-0.3l0.1,0.2l0.6,0.1l0.4-0.2l0.3,0.2   l-0.8,0.5l2.5-0.3l1.1-0.4l0.2,0.2l1.1-0.3l0.4-0.3l-0.2-0.3l-1.2,0.2l0.3-0.4l-2.2-0.2h2.3l0.7-0.2h0.5l1.1-0.3v-0.6l1.5,0.1   l1-0.1l0.2,0.1l1.6-0.6v-0.3l0.9-0.2l0.4-0.3l-1.3-0.4h2l-1.2-0.4l3.5-0.3l0.1-0.4l1.2,0.3l1.4-0.2l1.2-0.5l0.9-0.4h0.8l3-0.8l3.9-0.5l0.4-0.3l-1.4-0.1L235.325,8.725z">
			</path> 
		</a>
		<a href="amerique-du-sud.html">
			<path id="Z2" title="Amérique-du-Sud" d="
				M163.825,145.125l-0.9,0.4v0.5l-1.2,0.6l-0.7,0.6l-0.6,0.3l-0.7-0.1h-0.5l-0.8,1.2l-0.3-0.2l0.2-0.4   l-0.5-0.1h-0.3l-0.6,0.8l-0.5,0.4v0.4l-0.2,0.3l-0.2,1.1l0.1,0.5l-0.7,0.1l-0.5,0.8l-1.2,0.9l0.1,0.7l-0.1,0.8l-0.9-1.7v-0.1h-0.5   l-0.7-1l-0.8-0.5l-1.2-0.1l0.2-0.2l-0.9-0.1l-2.5,1.5l-1.1,0.4l-0.8-0.9v0.4h-0.8l-0.1-0.9l-1.8-1.8l-0.8-2.2l0.6-1.3h-0.3l0.2-0.7   l0.4-0.5l0.2-2.4l0.3-0.7l0.6-1l-0.4-0.7l0.1-0.3l0.4-0.2l-0.1-0.2l-1.9-1.6h-0.5l-0.4-0.2l-0.9,0.1l-1-0.2l-0.9,0.4l-1.9,0.1   l-0.6-0.3l-0.9,0.4l0,0l-0.7-0.4l-0.2,0.3l-0.4-0.4l0.4-0.6l0.6-0.5l0.5-0.9l0.1-1.1l0.4-1.3l0.1-0.6h-0.5l0.3-0.4h-0.4l-0.8,1.2   l-0.3-0.2l-0.3,0.4h-2.2l-0.9-0.1l-0.3,0.2l-0.1,0.5v0.5l-0.3,0.1h-0.6l1.3,1.2v0.3l0.3,0.2l-0.1,0.8h-2.3h-0.2l-0.9,1.8l0.2,0.3   l-0.2,0.3l-0.2,0.8l1.4,1.1l0.6,0.2h0.9l0.7,0.3h0.2l0.6,0.5l0.8,0.1l0.8,0.6l0.5-0.1l0.9,0.2h0.4l0.1-0.6l0.6,0.2l0.4,0.9   l-0.7-0.3v0.4l3.2,3.8l0.2-0.4l-0.3-0.2l-0.2-0.9l0.1-0.6l0.9,0.4l0.8,1l0.2,0.7l-0.2,0.2h-0.1l-0.4-0.1l-0.8-0.5l-0.2,0.4l0,0   l-0.4,0.3l0.4,0.5l-0.4,0.9l0.2,0.5l1.2,0.9l0.3-0.5l-0.7-0.5v-0.5l1.1,1l0.2,0.6l0.6,0.2l1.1,0.8l-0.2,1.3l1.2,0.8h0.1l0.3-0.6   l1.1,0.2l0.9,0.4l0.5,0.8h0.3l0.3-0.4l0.3,1.4l0.7-0.1l0.9-0.6l-0.7-1.1v-0.5l0.6-0.1l0.7-0.7l0.4-0.5l1-0.2l1.5,1.5l-0.5,0.7   l0.3,1l1,1l0.1,0.5l0.5,0.7l-0.3,0.7l0.4,0.8l-0.6,0.4l0.3,1l-0.2,2.3l0.6,0.3l-1,1.8l-0.3,0.9l-1.2,0.3l-0.5,0.4l0.2,1.1l-0.7-0.2   l0.2,1l0,0l-0.4,0.5l-1.9,0.7l-0.1,0.3l0.1,1l-0.8,1.1l0.4,0.6l-1.2,0.7l0.2,0.8l-0.1,0.5l0.2,0.9l-0.2,0.5l1.1,0.9l0.9-1.4   l-0.1,0.8l0.1,0.9l-0.4,1l-0.5,0.3l-0.9,0.8l-0.6,0.8l-0.2,0.5v0.6l0.4,0.5l-0.2,0.5l0.8,1.3l-0.6,0.2v0.4l1.3,0.6l1.4,1.4l2.1,3.6   l0.1,0.6l0.8,1.3l0.5,1.3l1,1.5v0.6l0.6,0.4l0.4,0.7v0.6l0.5,0.5l1.4,2.4v1.4l1.1,1.3l0.8,0.5l0.7,1l5.6,2.9l1.5,1.1l0.3,0.6l1.2,1   l0.8,0.4v1.3l0.6,1.8l0.2,2l0.4,1.4l-0.1,3.6h-0.4l0.1,0.8l0.4,0.2v1l0.1,1.6l0.4,1.1l-0.4,0.7l0.3,1.1v1.1l-0.2,0.7l0.2,1.3   l-0.3,0.7l0.2,1l-0.4,1.1l0.6,1.1l0.3,0.8l-0.2,0.9l-0.3,0.2l0.2,1.3l1.2,2.9l0.1,1.2l-0.2,0.7l0.5,0.9l-0.5,1.1l0.2,1.6l-0.3,1.3   l-0.1,1l0.2,0.6l-0.4,0.7l0.2,0.7l-0.1,0.4l-0.6-0.1l0.2,1.1l0.7,0.7l-0.1,0.5l1.4,2.4l-0.1,1l-0.3,0.3l0.1,1.1l0.4,1.4l0.8,1   l0.8,0.1v-0.6l1.2,0.4l-0.4,0.4l0.1,0.3h0.4l0.5,0.9l-0.7-0.3l0.5,1.6l-0.1,0.8l0.6,0.7l-0.3,0.9l1.3,0.4l0.1,0.7l-0.5,0.6   l-0.4,0.1l0.2,0.3l1.1,0.4l-1,0.1v0.5l0.5,1.1l-0.2,0.6l-0.3-0.7l-0.9-0.6l-1.4-0.1l0.6,0.6l-0.7,0.5l-0.3,0.8l1.2-0.6l-0.1,0.5   l0.7,0.3l0.6-0.2l0.9,0.8l-0.6,0.3v0.9l1.4,0.2v-0.5l1.2,1l-0.1,0.3l-2.1-0.3l1.5,1.1l-0.7-0.1l0.5,1.5l0.4,0.4l0.2-0.9l0.1,1.2   v1.1l1.5,1.3l-0.1,0.2l0.6,0.6l0.4,0.5l0.8,0.6l0.6,0.6l0.2-0.7l0.9,0.2l0.1,0.3l-1,0.6h-0.4l0.3,0.9l1.3,0.8l-0.1-1l1-0.1l1.1,0.1   l-0.3,0.2l-1.1,0.3l-0.3,0.1l0.4,0.6l-0.6,0.1l0.5,0.4l0.8,0.2l-0.3-1l0.7,0.1l0.6-0.7l0.5,0.3l-0.1,0.7l-0.7,0.2l-0.5-0.1l0.1,0.5   l0.8,0.5l1.5,0.1v-0.4l-0.6-0.8l-0.1-1l1.4-0.4l0.4-0.6l1.6,0.3l-0.2-0.4l-1.2-1l-1.2-0.2l0.9-0.1l-0.6-0.9h-0.4v-1.4l0.7-0.7   l0.7-0.3l-0.4-1.8l1.5-1.7l0.6-0.5l-0.4-1.3l-0.7-0.6h-1.3l-2-1.5l-0.2-0.6l0.4-1.4l0.9-0.7l1.4-0.1l-0.1-1.3l-0.5-1.3l0.3-1.1   l0.7-0.6l-1.2-0.3v-0.3l1.3-0.1l0.4,0.5l0.6-0.1l-0.4-1.4l-1.4,0.7l-0.3-0.4l-0.8-0.3l-0.3-1.2l-0.7-1.1l0.6-0.5l2.2,0.8h1.2   l0.7-0.3l0.3-0.6l-0.7-0.8l0.3-1.4l-0.8-1l-0.3-0.7l1.2,0.3h1.7l2.9-0.6l1.7-0.7l0.4-0.4v-0.7l0.6-1.1l0.4-1.1l-0.4-1l-0.6,0.1   l-0.7-0.7l-0.1-0.6l0.1-0.8l-0.6-0.6l-1.7-0.9l-1-2.1l0.1-0.9l0.3,1.1l1.5,1.5l1-0.1l0.9,0.6l0.7,0.1l0.4,0.3l1-0.4l1.3,0.4   l1.1-0.4l0.7-1.1l0.2-0.9l1-1.1l0.5-2.3l-0.2-0.6l0.3-1l0.8-0.5l0.1-1.4l-0.1-0.8l0.7,0.6l0.5-0.6l0.2,0.6l-0.5,1.3l-1.5,1.9v0.4   l1.6-1.6l0.5-1l0.8-2.9l0.7-1.1l0.9-0.8l0.4-2.3h-0.4v-1.1l-0.4-0.8l0.1-1.5l0.2-0.6l1.1-1.8l2.1-1.5h0.4l0.4-0.5l1.1,0.1v-0.5   l0.8-0.5h0.6l-0.3-0.3l0.2-0.5l1.4-0.2l0.4,0.3l2.5-0.3l0.2,0.2l0.3-0.4l-0.2-0.4l0.5-0.7l0.9-0.4l0.4-0.5l-0.2-0.4l0.3-1.7   l0.9-0.7l-0.2-0.4l0.4-0.4l0.1-0.7l0.6-0.6l-0.2-1.9l0.2-1.3l0.7-0.8l-0.2-0.7l0.1-1.2l0.3-1.2l0.1-0.9l-0.6-1.9l0.2-1.7l-0.3-1.1   l0.5-1.1l-0.2-0.2l0.4-0.6l0.4,0.8l0.6-0.2l1.6-3.8l0.4-0.6l1.1-0.7l0.7-1l0.4-0.8l0.8-1l0.7-2.6l0.1-1l-0.3-1.8l-0.4-0.7l0.1-0.5   l-0.6-1.4l-0.7-0.5l-0.7-0.1l-0.8,0.2l-1.2-0.6l-1-0.7l-1.4-1.7l-0.8-0.4l-1.6-1.2l-0.9-0.4l-1.7,0.3l-0.2,0.2l-1.3-0.5l-0.4,0.2   l-2.1-1.1l-1.9,0.4l-0.2,0.8l-0.6,0.7v-0.8l0.6-1.3l-0.5,0.1l0.2-1.1l-0.7-0.6l-0.7,0.3l-0.2-0.4l-2.6-1.3l-1.2-0.5l0.1,0.4   l-0.8-0.2l-0.7,0.3l-0.6,1.5l-0.2-0.1l-1,1l-0.5,1.2l0.1-1.6l0.8-0.7l0.8-1.5l0.1-0.9l-1.5-0.4l-0.4,0.4l-1.8-0.4l-0.5,0.6l-0.1,1   l-0.7,0.6l-2,1.2l0.6-1.1l0.4-0.5l0.1-0.7l1.2-1.6l0.6-0.5l1.3-1.8l0.1-0.7l-0.3-0.5l-0.6-0.1l-0.6-0.6v-0.7l-0.4-0.9l-0.3-2.1   l-0.5-0.9l-0.7-0.7l-1.3-0.7l-0.6-1l-0.9-0.2l-1.8-0.8l-1.3-0.2l-1.5,0.1l-0.1,0.7l-0.4-0.5l-1.6-0.2l-0.3,0.3l-0.3-0.9h-0.4   l-0.5-0.8l-1-0.4l-0.6,1l0.2-1.1l0.2-0.6l-0.2-0.7l-1.5-1.7l-1.5-0.8l-0.4,0.4l-0.4-0.3l-1,0.5l-0.9-0.5l1-0.1l0.3-1l0.5-0.5   l-0.6-0.6l-1.9-0.6l-0.3,0.5l-0.3-0.9l-0.4-0.5l-0.4,0.1l0.2-0.5l1.2-0.1l0.4-0.3l-3.5,0.1l-0.6,0.2l-0.4,0.6l-0.4,0.1l-0.8,0.5   l-1.2-0.4l-0.5-0.3l-0.2-0.4l-0.7-0.2l-2.1,0.4h-0.9l-0.4-0.3v-1.2l-1.1-0.7h-1l-0.4-0.5l-0.2-0.8l-0.3-0.2l-0.3,0.1l-0.1,0.3v0.8   l0.6-0.1l0.3,0.4l-0.3,0.1l-0.3-0.1l-0.6,0.4l-0.9,0.2l-0.9,0.4l-0.4,0.6l0.1,0.6l0.6,1l0.1,0.8l-0.3,0.7l-0.6,0.4h-0.5l-0.1-0.5   l-0.4-0.7v-0.7l0.8-1.1l-0.2-1l0.3-0.1l-0.4-0.2l-0.1-0.4v-0.5l1-0.5l0.5-0.4l0.1-0.4l-0.4-0.5H163.825z">
			</path> 
		</a>
		<a href="amerique-du-sud.html">
			<path id="Z3" title="Europe" d="
				M334.925,48.025l0.1,1.3l0.5,0.3l0.5,0.3l0.4-0.3l0.3,0.1l-0.3,0.9l0.3,1.2l-0.9,0.6l-0.9-0.3l-0.2-0.5   l-0.8-0.5l-0.1-0.3l-1.2,0.4l-0.5,0.5v0.6l-0.4,0.3l-0.1,0.7l0.2,0.8v0.6l0.3,0.7l0.1,0.3h-0.5l-0.8,0.6h-0.6l-0.1,0.5l-0.2,0.6   l-0.6,0.4l-1.3-0.4l-0.4-0.8l-1.7,0.2l-1,0.4l-0.7,0.5l-1.3,0.3l-1.8,0.6l-0.5-0.6h-0.5l-0.4-0.3l0.7-0.2l-0.6-0.4l-0.5,0.3h-0.5   l-1.6,0.7l-0.4,0.3l-0.8-0.1l-0.1-0.2l0.4-0.3l-0.1-0.3l-0.6,0.1l-1.6-1l0.8-0.1l-0.7-0.7l-0.1-0.4v-0.5h0.6l0.6-1.2l0.5,0.2   l0.4-0.5l-0.2-0.2l-0.8-0.1l-0.1-0.6l0.5-1l-0.2-0.5l-0.3,0.1l-0.4,0.1l-0.9,0.8l-1.2,0.1l-0.6,0.8l-0.1,1.2l0.3,0.3l-0.3,0.2   l-0.2,0.6l0.9,0.2l0.1,1.1l0,0l0.5,0.8l-0.6,0.2l0.4,0.8l0.6,0.3h-1.1l-0.1,0.7l-0.9-0.4h-0.8l-0.8,0.3h-0.1l-1.6,0.3l-0.7,0.6   l-0.8,0.2l-1.1,2l-1.2,1l-0.2,0.2l-1.3,0.6l0,0l-0.6-0.1l-0.9,0.5l-0.1,1.4l-1,0.6l-1.2,0.3l-0.4,0.9h-0.9l-1-0.1l-0.3-0.7h-0.8   l0.1,0.6l0.5,1.6l-1.6-0.1l-0.6,0.2l-0.7-0.6l-1,0.3l-1.1,0.2l-0.5,0.2l0.1,1l0.5,0.4l3.5,1.3l0.2,0.6l0.7,1.1l0.6,0.2v1.2l0.8,0.9   l-0.8-0.4l-0.3,1l-0.4,2.6l-0.6,0.8l-3.2-0.4l-1.6,0.2l-2.2-0.4l-1.8,0.2l-1.5-0.6l-1,0.9l-0.7,0.1l-0.8,0.6l0.6,1.8l-0.1,1   l0.1,2.1l-0.8,2.4l-0.5,0.5l-0.3,1.2l0.4,0.6l0.8-0.3l-0.3,1.4l0.1,0.3l-0.4,1.6l0.9-0.3l1,0.3l0.8-0.4h0.8l0.9,0.7l-0.1,0.3   l0.6,1.1l0.8,0.4l0.9-0.9l0.9-0.1l0.3-0.5l3,0.1l0.6-0.4l0.5,0.3l0.9-1.4l1.5-0.4v-0.7l0.7-1l1-0.7l-0.7-1l0.1-1.1l1.2-1.5l0.7-0.5   l-0.2-0.3l1.1-0.7l1.4-0.3l0.6-0.5l1.2-0.6l-0.1-0.6l0.3-0.4l-0.3-0.3l0,0l-0.2-0.8l0.3-0.7l1.5-0.8l1.7,0.4l0.8,0.4l1.3,0.2   l0.7-0.1l-0.2-0.3l1.5-1.1v-0.1l0.5,0.1l0.9-0.5l0.5-0.7h1l1.7,0.9l0.7,2l1,1.1l0.5,0.1l1.6,1.7l1.2,0.7l1.1,0.1l0.7,0.8h0.4v0.4   h0.8l0.3,0.8l0.6,0.5l0.4-0.1l0.7,1.4l0.2,0.7l0.3,0.3l-0.2,0.4l-0.4,0.1l-0.4,1.2l0.3,0.4l1.1-1.1l0.2-0.9l0.8-0.2l0.1-0.4   l-0.3-0.7l-0.9-0.4l0.3-1.1l0.5-0.6l0.5-0.1l0.2,0.4l0.8,0.1l0.4,0.8l0.4,0.2l0.3-0.9l-0.6-0.6l-2.4-1.3l-1-0.3l-0.6-0.5l0.6-0.7   l-0.6-0.2l-1.1,0.1l-0.9-0.5l-1-0.8l-1-2.1l-0.7-0.4l-1.1-0.7l-0.4-0.8v-0.6l0.4-0.4l-0.5-0.7l0.3-0.5l0.5,0.1l1-0.6h0.7l0.3,0.1   l-0.5,0.6l0.1,0.4l0.5,1l2.2,1.1l2.2,2.2l1.3,0.4l2.1,1h0.1l1.5,1.3v-0.1l0.4,0.3l-0.2,0.8l0.1,1l-0.1,1.3l0.8,0.5l0.5,0.9l0,0   l0.2,0.5l0.9,0.8l0.1,0.4l0.8,1.1l0.2-0.4l2.2,0.3l1,0.4l-0.4,0.5l-1.9-0.9l-1.2,0.9l1,1.1l-0.1,0.7l0.4,0.5l0.3-0.4l0.8,1l0.3-0.6   l0.8,0.7l-0.3-1.1l-0.5-1.1l0.9,0.4l0.5-0.3l-0.8-0.7l0.5-0.4l0.7,0.2l0.5,0.6l-0.1-1.2l-0.1-0.1l-2.4-1.2l1.1-0.7l-1.3-2.3   l0.1-0.5l0.5-0.3v0.4l1.2,1.2l-0.3-0.7l0.9,0.5l-0.4-0.7v-0.9h0.6l0.5-0.5l0.6,0.3l0.5-0.4l1.5,0.5l0.2,0.5l1.1-0.2l0.1,0.2   l0.7-0.3l0.4-0.5l1.1-0.3l0.8,0.3l0.4-0.1l0.2-0.6h-0.3l-1.1-0.5l-0.5-0.6l0.1-0.3l-0.6-1l-0.5-0.1l0.5-0.5h0.3v-0.9l0.3-0.5   l0.5,0.1l0.3-1.4l-0.2-0.6l0.2-0.6l0.7-0.4h0.6l0.1-0.7v-0.2l0.1-1l0.6-0.3l0.7-0.8l0.2-0.6l1.1-0.3l0.6,0.7l1.2,0.6l1.2-0.1   l0.8,0.5l-0.7,0.3l-1.1,0.5l0.2,0.2h0.5l0.8,0.5h0.2l0.3,0.5l-0.4,0.6l0.6,0.5h0.4l0.6-0.3l0.3-0.5l0.7-0.1h0.2l0.6-0.7l0.7,0.3   l0.8-0.1l0.3-0.7l-0.6-0.2l-0.4,0.2l-0.3-0.2l-0.5,0.4l-0.8-0.3v-0.3l-1.2-0.7l-0.4-0.1l-0.9-0.5h1.6h0.5l0.3-0.2l0.1-0.4l0.2,0.3   l0.8-0.6l0.5-0.1l0.2,0.2l0.2-0.2l1.5-0.4l0.3-0.4l1.1-0.1v-0.1l0.1-0.8l0.6-0.2l0.1-0.4l1.4,0.1l0.4-1l-0.4-0.5l-0.3-0.1l0.1-0.5   l0.5-0.1l-0.7-0.3l0.7-0.6l-0.3-0.3l0.1-0.2h-0.5l-0.5-0.3l-0.6-0.4l-0.4,0.2l-1.1-0.5l-0.4,0.3l-0.8-0.6l0.1-0.2l-0.4-0.3   l-1.2,0.5l-0.9-0.4l-0.8,0.1l-0.4-0.3v-0.3v-0.2l-0.6-0.9l-1.5-0.1l-0.3-0.8l0.4-0.4l-0.5-0.2l-0.2-0.5l-0.4-0.3l-1-0.1l-0.6,0.3   l-0.6-0.2l-0.2,0.5h-0.8l-0.1-0.3l-0.2-0.2l-0.1-1l-0.6-0.4l0.2-0.4l1.3,0.2l0.7-0.7l-0.4-0.4l-0.7-0.3h-0.5v-0.5l-0.8-0.4l-1-1.1   l0.2-0.6l-0.3-0.3l0.1-0.6l-1.2-0.6l-1.1,0.4l-0.2-0.6l-0.5-0.1l-0.5,0.2l-0.2-0.3l-0.7-0.1l0.1-0.3l-0.6-1.1h-0.5l0.2-0.9   l-0.5-0.4l-0.3-0.1l0.4-0.7l-0.4-0.6l0.1-0.4l-0.3-0.8l0.4-0.3l0.2-0.6l0.4-0.1l-0.3-0.2h-1.5l-1.5-0.4h-0.5l-0.4,0.4l-0.7-0.1   l-0.2,0.1h-0.6l-0.4,0.4L334.925,48.025z M342.825,27.425l-0.1-0.2l-1-0.3l-0.3-0.1h-0.9l-0.7-0.4l-0.4,0.4l-0.4,0.6v-0.5l-0.6-0.3l0.9-0.3l-0.5-0.2   l-0.6,0.1l-0.3-0.1l-0.4,1l-0.7,0.2v-0.8l-0.1-0.2l-0.6,0.5l-0.7,0.6l-0.7,0.3l0.1-0.6l0.7-0.5l0.5-0.6h-0.7l-0.4,0.6l-0.9-0.4   l-0.2,0.6l-0.8-0.2l-0.3,0.3l-1.3,0.5l-0.2,0.1l-1.1-0.1l0.8,1l-1-0.5l-1.1,0.5l-0.3-0.4l-0.3,0.3h-0.9l0.1-0.4h-0.7l-0.3,0.4h-0.4   l-0.6,0.5l-1,0.2l-0.4,0.5l0.3,0.2l0.7,0.1l-0.4,0.4l-0.8,0.1l-0.1-0.3l-0.5-0.1l-0.6,0.3l0.3-1l-0.7,0.6h-0.6v0.3l-0.7,0.1l-0.3,1   l3-0.7l1,0.3l-1.3,0.2l0.1,0.5l-0.5-0.3l-1.5,0.6l0.2,0.6l-0.8,0.5l-0.1,0.4l-1.1,0.1v0.3l-0.7,0.5l-0.3,1.1l-0.6,0.6l-0.4,0.8   l-0.4,0.3l-0.6,0.2l0.3,0.8h-0.5l-0.3-0.3l-1.4,1.3l-0.4,0.2l-0.3,0.5l-0.7-0.1l-0.8,0.1l0.2,0.5l-0.6,0.1l-0.2,0.5l-1-0.1   l-0.6,0.2l0.2,0.5l-1.1,0.1l0.1,0.4l-0.7-0.1l-1,0.8l-0.3,0.7l0.5,0.2l-0.6,0.2v0.3l0.8,0.4h-0.7v0.2v0.6l0.5-0.1l0.5-0.1v0.6h-0.1   l-0.6,0.1v0.3h0.7v0.3l-0.6,0.1l-0.2,0.9l0.1,0.4l0.9-0.2l0.2,0.3l-0.3,0.7l-0.5-0.1l-0.1,0.5l0.2,0.4l0.5,0.1l1,0.4l-0.1,0.3   l1.8,0.2l2.2-1.3l0.1-0.3l0.6-0.3l0.2-0.2l0.4,0.2l0.7-0.7l-0.3-0.4h0.4l0.2,0.6l0.3,0.1h0.4v0.2l-0.2,0.3l0.3,0.6v0.5l0.8,0.1   l-0.2,0.9l1.1,1.7l0.3,0.3l0.2,0.4l0.4,0.1l-0.4,0.2l0.2,0.5l-0.6-0.1l1,1.2l-0.1,0.5l0.6,0.2l0.8-0.2l0.4,0.1l0.4-0.3l-0.3-0.3   v-0.3l0.4-0.5l0.2,0.1l0.1-0.2l1-0.1l0.8,0.2l0.7-1.4l0.5-2.3v-0.8l0.2-0.5l0.9-0.5l0.4,0.2l0.3-0.4l0.9-0.5l-0.4-0.3l0.8-0.8   l-0.2-0.6l-0.5,0.1l-0.9-1l-0.4,0.2l-0.7-0.4l-0.3-1.9l0.7-0.9l-0.4-0.6h0.8v-0.7l0.8-0.1l0.2-0.5l0.6-0.1l0.4-0.5h0.6l1.1-0.5   l0.5-0.7l0.9-0.6l-0.8-0.7l0.6-0.4v-0.6l1.1-0.3l-0.1-0.6l1,0.3l0.6-0.2l0.5,0.1l0.4-0.1l-0.4-0.6l0.4,0.6h0.6l0.2,0.3h0.3l0.6,0.3   l-0.1,0.6l0.2,0.2v0.4l-0.3-0.1l-0.7,0.1l-0.8,1l-0.8,0.5l0.1,0.2l-1,0.4l-0.5,0.3l0.2,0.5h-1.2l-0.5,1.3l0.3,0.8v0.3l0.7,0.9   l-0.5,0.9l0.3,0.9l1,0.4h0.8l-0.3,0.8l0.5-0.1l0.2-0.2l0.5,0.6l1.6-0.5l0.2,0.1l0.6-0.3l0.9-0.1l2.4-0.6h0.7l0.2-0.1l1.9-1.3   l1.9-1.7l0.8-0.6l0.3-0.8l-0.6-0.6l-1.9-0.9l0.7-0.6v-0.4l-0.9-0.4l-0.1-0.2l0.2-0.4l-0.8-0.2l0.2-0.6h-0.3v-0.8l0.6-0.2l-0.5-0.7   l-1.4-1.4l0.1-0.2l1-1v-0.2l-1-0.7l-1-0.3l-0.3-0.6l0.3-0.5l-0.5-0.1l1.1-0.3v-0.4l0.8-0.1l0.3-0.3h0.9l-0.1-0.5l-0.9-0.1l-0.9,0.3   l0.4-0.3l-1.5-0.5l1.9,0.1l0.5-0.2L342.825,27.425z M329.725,29.625L329.725,29.625L329.725,29.625z M293.125,49.325l-0.8-0.3l-0.6,1.2l0.2,0.3l-1,0.3l0.2,0.7l-0.1,0.3l-0.1,0.4l-1,0.8l0.1,0.5l0.6-0.1l1-0.7   l-0.7,0.8l-0.5,1.9l0.2,0.1l0.8-1.1l0.8,0.9l-1,0.9l0.4,0.6l1.6-0.3l0.5-0.4l0.9,0.1l-0.9,0.7l0.2,0.9h0.9l-0.7,1.9l-0.4-0.2   l-1,0.2l-0.6-0.3l-0.5,1.1l0.9-0.1l0.2,0.5l-0.4,0.8l-1.7,0.6l0.2,0.7l1.2-0.3l1.4,0.7l1.5-0.6l-1,1l-1.5-0.1l-0.8,0.6l-0.8,0.9   l-1.4,1h0.9l0.7-0.5l0.6-0.1l0.4-0.3l0.8,0.5l0.5-0.8l0.8-0.3l0.7,0.3l2-0.1l0.7-0.3l1.5,0.1l1.9-0.7l0.2-0.4l-0.9-0.2l-0.1-0.7   l0.7-0.3l1-1.3l-0.2-0.5l-1.4-0.4l-0.6,0.4l-0.5-0.2l0.4-0.6l-0.2-1l-0.9-1.5l-1.2-0.6l-0.5-1.8l-1.5-0.8h-1l1-0.5l1.7-2.4   l-0.2-0.3h-2.4l-1,0.3l0.1-0.7l1.1-0.7l0.7-0.8L293.125,49.325z M283.325,59.125v0.3l1.7,0.3l-0.7,0.4l-0.9,1.3v0.2l-1,0.2v0.6l0.5,0.5l0.5,0.3l1.9-0.3l0.3-0.6l0.5,0.3   l0.8-0.6l1.9-0.3l0.7-1.6l-0.3-1.9l-1.1-0.9l-0.4,0.7l-0.9-0.6l1.1-1.3l0.9-0.3l-0.6-0.2l-1.5,0.2l-1.1,1.1l0.9,0.1l-0.8,0.6   l-1.1-0.1l-1,0.2l0.6,0.9L283.325,59.125z M319.325,91.925l0.9,0.2l0.7,0.6l1.5,0.6l0.4,0.4l0.9,0.2l0.4-0.8l-0.5-0.8l0.9-1.7l-1.3,0.2l-1,0.4h-0.9   l-0.7-0.4l-0.7,0.3l-0.3-0.1l-0.6,0.5L319.325,91.925z M314.525,86.025l-0.2-0.8l-0.8-0.7l-1.2,0.9l-0.5-0.4v0.6l0.5,0.9l-0.1,0.5v2l0.8,0.3l0.3-0.7l0.9,0.1   l0.2-1.9l-0.3-0.3L314.525,86.025z">
			</path> 
		</a>
		<a href="amerique-du-sud.html">
			<path id="Z4" title="Afrique" d="
				M365.525,131.825h-0.4l-0.5-1.8v-0.4l-0.2-0.5l0.1-1.2l-0.4-1l0.5-0.1l-0.8-1.1l-0.2-0.7l0.1-0.1l-0.2-0.4   l-0.6-0.3l-0.5-0.6l-0.7-0.3l-0.4-0.8l-0.3-0.8v-0.9l0.2-0.2l-0.9-1.1l-2.4-4.5l0.1-0.4l-0.4-0.8l-0.6-0.8l0.1-0.4l-0.6-0.7   l-0.5-0.7l-0.2-0.2l-0.2-0.4l-0.4-0.4l-0.1-0.8l-0.4-0.5l0.4-0.9v0.4l0.2,0.2l0.1,0.6l0.3,0.4l0.5,0.5l0.2,1l0.6,0.5l0.4,0.6   l0.8,0.5l0.5-0.5l-0.2-0.6l0.4-0.9l0.1-1.2l0.3-0.4l-0.3-1.1l-0.5-0.8l-0.1-0.6l-0.5-1.1l-0.1-0.2l-0.9,0.4l-0.5-0.1l-0.5,0.3   l-0.1-0.4l-0.7,0.3l-0.6-0.4l-0.1,0.3h-0.4l-0.6-0.4l0.2-0.4l-0.5,0.1l-1-0.4l-1.2,0.3l-1.5,1.1l-0.7,0.3l-1.2-0.6h-0.9l-0.1-0.3   h-0.8l-0.2-0.3l-2.4-0.5l-1.2,0.3l-0.3-0.3l-0.3-0.7l-1.6-0.1l-0.6-0.4h-0.8l-0.4-0.3v-0.6l-1.7-0.6l-0.9-0.1l-0.4,0.3l-0.6,0.1   l-0.9,0.4l-0.8,0.8l-0.3,0.9l0.5,1.3l-0.1,0.6l-0.6,0.7l-0.8,0.5h-0.5l-0.7-0.3l-0.8-0.7l-2.6-1h-1.1l-0.9-0.6l-0.5-0.9v-0.4   l-0.3-0.5l-1.3-0.3l-0.5-0.4l-1.7-0.4l-0.8,0.2l-0.9-0.1l-0.6-0.4l-0.8-0.3l-0.5-0.1l-0.2-0.8l-0.5-0.2l-0.5,0.2l-0.7-0.6l-0.2-0.5   l0.2-0.3l0.9-0.6l0.9-1.4l-0.2-0.9l-0.6-0.3l-0.4-0.6l0.1-0.6l0.5-0.2l0.6-0.8l-0.2-0.5l-0.2,0.1l-0.9,0.7l-0.4-1l-0.5-0.3   l-0.9,0.2h-0.3l-0.6,0.5l-0.4,0.1h-0.7l-0.6,0.2h-0.2l0.1-0.3l-1-0.2l-0.5,0.5l-0.6-0.3l-0.2-0.2l-0.4,0.3l-1,0.3l-0.6,0.3   l-0.4-0.1l-0.5-0.4l-1.6-0.1l-0.7,0.4l-0.8-0.1l-0.8,0.5l-0.4-0.2l-0.6,0.2l-1.5,0.1l-1.4,0.7l-0.8,0.8l-0.5-0.2l-0.5,0.4l-0.3-0.1   l-0.7,0.4l-0.3,0.5l-0.9,0.5h-0.6l-0.4-0.1l-0.3,0.1l-0.7-0.4l-0.5,0.2l-0.6-0.2l-1.3,0.3l-0.6-0.2l-0.9-0.7l-0.2-0.7l-0.9,0.2   l-0.8,2.1l-1.1,1.7l-0.3,0.3l-2.8,1.3l-1.3,1.5l-0.2,1l-0.6,0.7l-0.4,0.7l-0.1,1.6l0.4,0.5l-0.3,1.1l-0.6,0.6l-0.3,0.6l-0.6,0.6   l-1,0.6l-0.8,0.9l-1,0.4l-1.6,0.4l-0.5,0.5l-0.8,2l-0.8,0.6l-0.3,0.1l-0.5,0.5l-0.2,0.5l-0.5,1.1l-0.3,1.5l-0.2,0.3l-0.3,0.1   l-0.9,1l-0.4,0.3l0.1,0.2l-0.8,1.5l0.1,0.1l-0.3,0.3l-0.1,0.7l-0.3,0.5l-0.4,0.1l-0.4,0.7l-0.3,1.2l0.1,0.4l0.5,1l0.3,0.3l0.1-0.2   l0.5,0.9l-0.5,1.1l-0.2,0.7l0.1,0.3l0.4,0.2l0.1,0.5l0.1,1v1.5l-0.1,0.7l-0.7,1.6l-0.2,0.7v1.2l-1.2,1.8l-0.8,0.3l0.8,0.2l0.6,1.1   l0.1,0.6l0.3,0.4l-0.5,0.6l0.1,0.6l-0.1,1.2l0.2,0.4l0.5,0.3l0.1,0.4l0.4,0.4h0.5l0.7-0.3l0.2,0.1l-0.4,0.4l-0.1,0.3l0.3,0.4   l0.5,0.3v0.3l0.3-0.2v0.7l0.1,0.1l0.4-0.4v0.6l0.5-0.4l-0.3,0.8h0.2l0.1,0.6l0.6,0.3l0.2,0.1l0.6,0.6l0.3-0.1l-0.3,0.6l0.4,0.2   l0.2,0.3l0.1,0.2l0.1,0.2v0.8v0.5l0.2,0.6l0.3-0.1l0.3,0.9l0.5,0.4l-0.7-0.1l-0.1,0.2l0.6,0.2l0.2,0.1l0.7,0.3l1.3,0.7l0.2,0.5   l1.1,0.7l-0.1,0.2l0.8,0.4l0.5,0.3l1.3,1.4l0.6,0.6l1.5,0.9l0.6,0.2l0.4,0.2h0.6l0.9-0.6l0.5-0.1l1.5-0.7l0.5-0.2l3-0.3l3,0.8   l0.6,0.3l0.2-0.2l0.3-0.1l0.2-0.2l1.2-0.5h0.4l0.7-0.6l0.7-0.1l0.3-0.3l0.4-0.2l0.6,0.1l0.5-0.1l0.2-0.3l0.3-0.5l2.8-0.3l0.6-0.1   l0.9-0.2l1.7,0.3l0.5,0.4l1.2,1.7l0.2,0.5l0.3,1l0.5,0.5l0.3,0.2l1.5-0.2l0.4-0.1l0.4-0.4l0.8,0.2l1.2-0.2l-0.4-0.8l0.7,0.5v0.1   l-0.1,0.3l0.4,0.1l0.4-0.1v0.3l0.2,0.7l0.4,0.3h0.4l0.2-0.1l0.4,0.1l-0.3,0.3l0.1,0.6l0.5,0.5l0.1,0.4l-0.2,0.3l-0.2,1.3l0.1,0.8   l-0.9,1.6l0.4,0.3l0.2,0.7l-0.1,0.5l-0.1-0.4l-0.4,0.1l0.3,0.7l0.5,0.3h-0.8v1l-0.5,0.6l-0.1,0.5l-0.6-0.6l0.3,0.9l0.7,1.3v0.5   l0.6,0.7l0.1,0.4l0.3,0.2l1.6,1.8v0.2l0.7,0.6v0.2l1.4,1.6l0.1,0.5l0.4,0.5v0.1l0.4,0.9l-0.2,0.3l0.2,0.3l0.3,0.5l0.5-0.2l0.1-0.1   h0.5l-0.4,0.3l-0.9,0.2l0.5,1.1l0.5,0.5v0.8l1,2.4l-0.1,0.2l0.1,0.5l-0.3,0.2l-0.4,0.5l0.3,0.6v0.8l0.6,1.2v0.2l0.5,0.6l-0.1,0.2   l0.2,0.5l-0.1,0.7v1l-0.2,0.9l-0.3,0.2l-0.3,0.5l-0.3,0.1l-0.4,0.4v0.4l-0.8,0.9v0.9l-0.4,0.4l-0.1,1.4l-0.4,1.1l-0.1,0.7l-0.5,0.5   l0.2,0.4l-0.2,3.4l0.1,1l0.3,0.3l0.1,0.6l0.5,0.4l0.3,0.4l1.1,2.5l0.2,0.3l0.4,1.4l0.9,1.3l0.1,0.6l0.6,0.7l0.4,0.9v0.7l-0.1,0.3   l0.1,0.7l-0.1,0.1l0.1,0.9l-0.1,0.6l0.3,0.7v0.3l0.3,0.4l0.1,0.6l-0.1,0.5l0.2,0.6l-0.1,0.4l0.2,0.6v0.5l0.2,0.2l0.1,0.4l-0.1,0.2   l0.3,0.6l0.1,0.8l0.8,1.4l1.4,1.5l0.1,0.3l0.4,0.5l0.7,2.7l0.9,1.7l0.7,1.1l0.2,1.2l-0.1,0.7l-0.3,0.4l-0.2-0.2l-0.3,0.2l0.2,0.7   l0.6,0.7l0.3,0.9l-0.3,0.3l0.2,0.7v-0.6h0.7v0.6l0.5-0.2l0.3,0.3l-0.1,0.4l0.7,0.4h0.6l0.9-0.7h0.6l0.2-0.2l0.6,0.1l0.4-0.1h0.5   l0.6-0.6l0.6-0.1l0.4-0.1l1.2,0.3v-0.2l0.5-0.1l2,0.5l0.2-0.5l1.4,0.1l-0.2-0.3l0.3-0.3l0.4-0.1l0.6,0.1h0.4l1-0.5l1.5-1l0.5-0.5   l0.3-0.2l1-0.9l1-1.3l0.4-0.2l0.7-0.6l0.8-1l0.9-1.5l0.3-0.4l0.6-1.2l0.8-0.9l0.6-0.2l0.6-0.6l0.1-0.3l0.2-0.5l0.8-2.8l0.2-1.6   l-0.3,0.5l-0.3-0.7l0.2-0.2l0.2-0.5l0.7-0.7l3.4-1.3l0.3-0.3l0.6-1v-0.6l-0.3,0.4l0.3-1.7l0.3-0.5l-0.2-0.5l0.1-1.1l-0.1-0.1l0,0   l-0.3,0.6l0.1-0.7l-0.1-0.9l-0.3-0.6v-0.9l-0.2-0.5l-0.5-0.3l0.2-0.8v-0.6l0.4-0.2l0.9-0.8l0.4-0.6l0.6-0.5h0.5l0.3-0.2l0.1-0.5   l1.4-1.7l1.3-0.8l0.6-0.2l0.9-0.4l0.8-0.2v-0.3l1.1-0.6l0.2-0.6l0.3-0.2l0.2-0.4l1-1.1l0.2-0.5l-0.3-0.2l0.3-0.1v-0.4l0.4-0.4v-0.5   l-0.3-0.1l0.1-0.5l-0.3,0.2l0.1-0.6l-0.1-0.7v-0.8l0.1-0.7h-0.3l0.3-0.3v-0.3l-0.2-0.3l0.1-0.6l-0.1-1.3l0.1-0.5l-0.2-0.1l0.3-0.6   v-0.2l0.2-0.6l-0.3-0.4v-0.4l-0.9-0.5l-0.5-0.1l0.2-0.3l-0.3-0.9l0.1-0.5l-0.3-0.2v-0.3l-0.3-0.5l-0.1-0.9l0.4-0.6l-0.1-0.4h-0.3   l0.1-1.1l0.5-0.4l-0.2-0.5l-0.3-0.1v-0.2l-0.3-0.3l-0.4-0.3l-0.1-0.3v-0.3l-0.1-0.3l0.5-1.7l0.2-0.2l0.1-0.9l0.4-0.3l0.2-0.3   l0.2-0.7v-0.2l0.3-0.1l0.4-1.2l0.2-0.2l0.3-0.6v-0.7l0.4-0.2h0.3l0.3-0.3v-0.3h0.3l0.2-0.5l0.5-0.2l0.4-0.6l1-1.7l0.1-0.1l2.8-3.3   l2.1-2l2.3-1.5l3.6-4.4l2-3.5v-0.5l1.3-2.8v-0.4l0.5-0.6l0.4-0.7l0.2-0.7l0.4-0.4v-0.3l0.3-0.4l-0.1-0.4l0.2-0.8l-0.1-0.7l1-0.3   l-0.5-0.3l-0.1-0.8l0.1-0.4l-0.2-0.1l0.1-0.6l0.2-0.4v-0.4h-0.4l-0.5-0.2l-0.4,0.1l-0.2,0.5l-0.7,0.3l-2.2,0.6l-0.4-0.1l-0.5,0.1   l-0.6,0.3l-0.6,0.1l-0.3-0.2h-0.3l-1.3,0.9l-0.6,0.1l-0.2-0.2l-0.9-0.1l-0.6,0.4h-0.2l-0.6,0.4h-0.4l-0.7,0.2l-1.1-1l-0.6-0.8v-0.3   l-0.5-0.3l-0.2-0.2l-0.8,0.1l0.1-0.3l0.5-0.2l0.3-0.4h0.3l0.1-0.5l-0.2-0.6l-0.4-0.5l-0.2-0.3h-0.4l-0.1-0.3l-0.4-0.4h-0.3   l-0.2-0.8l-0.6-0.5l-0.5-0.2l-1-1.5l-0.8-0.2l-0.4-0.6l-0.5,0.3l-0.2-0.2l-0.3-0.6l0.1-0.2l-0.4-0.3l-0.1,0.2l0.1,0.5l-0.3,0.2   l-0.2-0.9l-0.3-0.1v-0.6l-0.3-0.4l-0.3-1.6l-1.1-2.6l-0.4-0.4h-0.3l-0.5-0.7L365.525,131.825z M386.625,197.525l-0.3-0.1l0.2,0.5l0.1,0.3l-0.2,0.6v0.5l-0.3,0.2l-0.4-0.1l-0.2,0.4l-0.1,0.5l-0.3-0.4   l-0.3-0.2l-0.2,0.2v0.3l0.3,0.6l-0.3,0.1v0.3l-0.2-0.1l-0.2,0.5l0.1,0.3l-0.1,0.4l-0.5,0.7l0.2-0.6l-0.2-0.3l-0.3,0.4l-0.4,0.7   l0.2,0.5l-0.4,0.1v-0.6l-1.2,0.9l0.1,0.5l-0.2,0.2l-0.1-0.5l-1,0.1l-0.3,0.4l-0.4,0.4l-0.1-0.5l-0.8,0.6h-0.7l-0.2,0.4l0.1,0.7   l-1,1.6v0.3l0.2,0.3l-0.1,1.4l0.4,0.8l-0.1,0.6l0.4,0.8l-0.2,0.7l0.1,0.3l-0.4,1l-0.3,0.2l-0.4,0.8l-0.2,0.7l-0.6,0.3l-0.1,0.6   l-0.4,0.5v0.7l-0.1,0.2l0.2,1.1l0.4,0.5v0.5l0.2,0.4l-0.1,0.2l-0.1,0.2v1.3l0.4,0.7l0.1,0.8l0.6,0.5l0.8,0.1l0.6,0.7l0.7-0.1   l0.7-0.6l0.7-0.2l0.8-0.1l0.8-0.5l0.3-0.9l0.1-0.5l0.5-0.8v-0.6l0.3-0.6l0.5-1.8l0.6-1.3l2.5-7.2l0.4-1.5l-0.1-0.8l0.3-0.8l0.4-0.3   l-0.1-0.1l0.2-0.4l0.1-0.7l-0.3-0.4l0.1-0.3l-0.1-0.8l0.2-0.2h0.3l0.2,0.9l0.3,0.3l0.3-0.4l0.2-0.7l0.1-0.5l-0.5-1v-2l-0.4-1.3   l0.1-0.3l-0.4-0.6l-0.3-0.3l0.1-0.3l-0.5-0.4v-0.7l-0.2,0.1l-0.1,0.5l-0.3,0.2L386.625,197.525z">
			</path> 
		</a>
		<a href="amerique-du-sud.html">
			<path id="Z5" title="Moyen-Orient" d="
				M343.725,86.225h-0.4l-0.8,0.8v0.8l-0.1,0.3l1.4-0.2l-0.3,0.7l0.2,0.2v0.4h0.4l-0.5,0.7l0.8,0.4l-0.7,0.2   l-0.6-0.7l-0.1,0.9l0.5,0.3l0.6,0.1l0.5,0.2l-0.3,0.5l0.5,0.8l0.4,0.2l-0.5,0.6l1.9-0.2l-0.5,1l0.9-0.4l0.5,0.4l0.2-0.4l0.4,0.4   v0.4l1,0.6l0.9-0.4l0.3,0.2l0.2-1.1l0.2-0.3l1.1,0.1l1.3,0.5l0.7,0.8l0.7,0.3l1.5-0.3l0.4-0.3l0.1,0.3l0.5-0.8l0.6-0.5l1.2,0.5   l0.5-0.1l0.7-0.7l0.4,0.6l-0.7,0.7l0.4,0.7l-0.3,0.4l0.1,0.1l-0.1,0.4l0.3,0.3l0.1,0.5l-0.1,0.6l0.3,0.5v0.3l-0.3,0.1l-0.3,0.4   l0.1,0.6l-0.3,0.2v0.4l-0.5,1.3l-0.1,0.5l-0.2,0.1l-0.3,1.8l-0.3,0.7l0.2,0.2l-0.5,0.7l0.5,1.1l0.1,0.6l0.5,0.8l0.3,1.1v-0.2   l0.1,0.5l-0.3,1.4l0.1,0.4l-0.4,0.8h0.8l0.6,0.5l0.5,0.9l2.2,3v0.3l0.5,0.5l0.6,1l-0.1,0.7l0.4,0.6l0.2,0.4l0.8,0.4l1,0.8l0.5,0.8   l0.3,0.9l0.5,0.9l0.1,0.4l-0.2,0.3l0.2,2l0.5,0.8l0.4,0.3l0.2,0.5l0.5,0.4l0.4,0.1l1.1,1l0.6,1l0.5,1.3l0.4,0.5l0.6,1.2l1.1,1   l0.1,0.6l0.4,0.3v0.3l0.3,0.3l0.4,1.7l-0.3,0.5v0.9l0.5,0.6l-0.1,0.3l0.5,1.4v0.4l0.2,0.2l0.1,0.4v0.9l0.4,1.2l0.3-0.1l0.7,0.3   l0.8-0.2l0.3-0.3l0.9,0.2l0.1-0.5l0.5-0.2l0.4-0.6l1.1-0.2h0.9l1.2-0.5l1.1-0.8l0.4,0.2l0.9-0.2l0.7-0.9h0.2l0.7-0.5l0.7-0.3h0.3   l0.7-0.4l1.3-0.3l0.8-0.3l0.9-0.6v-0.4l-0.2-0.4l0.3-0.6l0.5-0.4l0.9-0.4l0.9-0.2l0.7-0.3l0.2-0.2l0.9-0.1l0.4,0.2l0.4-0.1l0.4-0.5   l-0.1-0.7l0.4-0.5l1-0.3h0.6l0.3-0.4l0.2-0.9l0.3-0.4l0.6-0.3l1.2-0.2l-0.3-0.6l0.1-0.3l-0.2-0.6l0.2-0.5v-0.6l0.6-0.8l0.1,0.4   l0.3,0.2l0.5-1.1l0.6-0.9l0.5-0.3l0.7-1.7l-0.1-0.7h-0.5l-1.5-2l-0.4-0.3l-0.4,0.1l-2.2-0.7l-1.1-1.1l-0.5-1.1l-0.1-1.2v-1.4   l-0.2-0.4l-0.3,0.3l-0.2,0.4l-0.2,0.6l-0.8,0.8l-0.6,0.9l-0.7,0.5l-0.4,1l-0.7,0.3l-0.7,0.2l-0.3-0.2l-1.6-0.1l-0.4,0.3l-0.7,0.2   l-0.3-0.7l-0.9-0.1l0.1-0.6l0.4-0.9l-0.1-0.5l-0.3-0.5l0.2-0.6l-0.1-0.2l-0.3-0.1l-0.3-0.5l-0.4,0.3l-0.4,1.1l0.1,0.8l0.2,0.5   l-0.2,0.3l-0.4-0.6l-0.2-0.9l-0.7-0.9l0.1-0.9l-0.4-0.4l-0.1-0.5l-0.6-0.5l-0.3-0.4h-0.3l-0.3-0.8l-0.7-0.2v-0.4l-0.9-1.5l-0.2-0.4   l-0.4-0.7l-0.2-0.6l0.1-0.4l0.3-0.4l-0.3-0.4l-0.5-0.2l-0.7-0.1l1.7,0.2l0.7-0.2l-0.2-0.5l0.2-0.5h0.4v0.7l0.8,0.4l0.5-0.4h0.3   l0.2,0.6l1,0.9l0.1,0.7l0.5,0.2l-0.1,0.2l0.5,0.5v0.5l0.6,0.9l0.5,0.5h0.7l0.5,0.3l0.8,0.5l-0.1,0.2l0.8,0.5l0.8,0.3l0.5,0.6   l1.1-0.1l0.6,0.5h0.3l0.8-0.6h0.6v-0.4l0.6-0.1l0.3-0.3h0.3l0.9,0.1l0.5,0.6l0.2,0.8l0.5,1.4l0.8,0.1l0.7,0.4l0.5-0.1l0.8,0.1   l0.4,0.3l0.8-0.2l0.8,0.3l1.2-0.1l0.1,0.3l1.1,0.3h0.5l0.2-0.2v-1.2l0.2-0.9l0.7-0.3l0.1-0.3l0.8-0.3h0.7l0.1-0.5v-0.5l-0.2-0.3   l-0.5,0.1l-0.3-0.1l0.1-0.4l-0.3-1.7l-0.3,0.1l-0.5-0.5l-0.9-0.2l-2.2-2.8l1.4-2v-0.4l-0.3-0.8l-1.6-0.2l-0.3-1.2v-0.4l-0.7-2   l0.4-0.4l-0.1-0.2l-0.6-0.3l-0.2-1.1l0.3-0.4h0.3l-0.3-0.4l0.5-0.6v-0.6l-0.2-0.4l0.2-0.7l-0.2-0.6l-0.2-0.2l0.1-0.3l-0.2-0.4   l-0.1-0.7h-1.4l-0.7-0.7l-0.4-0.3h-0.3l-0.5-0.4l-0.2-0.4l-0.9-0.4l-0.8,0.2l-0.4-0.4l-1.3-0.3l-0.6-0.7l-0.2,0.2l-0.6-0.2h-0.4   l-0.2,0.4l-1-0.1l-0.6,0.1l-0.9,0.7v0.5l-0.9,0.4l-0.5-0.1l0.3,0.9v0.3l-0.7-0.1l-2.7,0.6l-1.6-0.3l-1.5-0.9l-0.3-0.5l-0.5-0.2   l-0.9-0.1l-0.5-0.2l-0.5-0.6l-0.4-2l0.2-0.7l0.2,0.4l0.4-0.8l-0.2-0.2l0.1-1.4l0.6-0.4l0.9,0.2l-0.2-0.4l-0.5-0.3h-0.6l-0.3-0.2   l-0.1-0.3l-0.5-0.4l-0.5-0.8l-0.9-0.9l-0.3,0.5l-0.5,0.2l-0.2,0.5l-1-0.1l-0.4-0.6l-0.7-0.6l-0.6-0.1l-0.4-0.2h-0.5l-0.5-0.4v-0.6   l-0.7-0.1l-0.8-0.5l-1.5,0.4l-0.4-0.1l0.1-0.2l-1.2-0.5l-0.6-0.4l-0.7-0.2l-1.4,0.1l-1-0.3l-0.7-0.4h-1l-0.1,0.3l0.6,0.5l1,0.2   l0.2,0.3l0.4,0.3l0.4,0.1l0.9,1.9l-0.5,0.9l-0.7,0.4h-0.3l-1.1,0.6l-0.8-0.2l-0.4-0.2l-1.8,0.4l-0.8-0.2l-0.4-0.3l-0.2,0.3   l-1.6-0.8l-0.4,0.3l-0.5-0.5l-0.1-0.3l-0.3-0.2l-0.8,0.2l-0.6-0.4v-0.5l-0.4-0.1l-0.5,0.4l-2.2-0.2l-1.7,0.6l-0.2,0.2l-1.2,0.7   l-0.3,0.4h-0.8l-0.8-0.2l-0.2,0.1l-1.7-0.2l-0.2,0.5l0.5,0.4l1.1,0.2l-1.6,0.2l-0.3,0.1l0.4,0.4l-1.3-0.1l-1.5,0.2l-0.2-0.3L343.725,86.225z">
			</path> 
		</a>
		<a href="amerique-du-sud.html">
			<path id="Z6" title="Asie" d="
				M542.125,29.225l-0.3-0.2l-4.2-0.7l-0.6-0.1h-3l-0.5,0.1l-1.2-0.3l-3.2-0.2l0.7,0.8l0.7,0.2l1.8,0.8l-0.3,0.4l-0.9,0.1l-1-0.5l-1.9-0.3l-1.4-0.8l1.8,0.3l-0.5-0.6l-1.8-0.3l-0.6,0.9l-3.4-0.2l-1.1-0.3l-0.3,0.2h-1.8l-1.2,0.3l-1.4-0.2l-1.4-0.4l-0.3-0.7l-2.4-1l-2.8-0.4l-2.3-0.1l-3.8,0.6l-1.6-0.3l-1.1-0.7l-1,0.2l-0.4-0.4h-1l-2-1.1l-13.2-1.3l1.3,0.5   l-0.5,0.1h-1.4v0.5l0.5,0.2l1.1-0.1l0.1,0.6l1.2,0.6l-1,0.1l-1.1-0.2l-1.2-0.1l-0.8,0.1l-1.7-0.2l-1.1,0.5l-1.9-0.2l-1.8-0.8v0.4   l0.6,1.4l-0.4,0.4l-0.7-0.4l-1.2-0.3h-0.6l-2.2-1.2l-0.8-0.1l-1.2-0.7l1.1,0.2h0.5l-0.6-0.5l-0.8-0.2v-0.6l-1.1-0.1l0.3-0.3   l-1.8-0.5l-1.8-0.2l-0.6,0.2l-0.3-0.3l-1.2,0.1l-1.6-0.6l-0.3,0.5l-0.6-0.2l-0.1,0.2l0.9,0.5l0.3,0.6l-1-0.1l-1.9,0.1l-1.4-0.1   h-0.6l-0.2-0.1l-1.6-0.3l-0.5-0.3l-1.7-0.3l-2.8-0.2l-0.3,0.2h-1l-0.8,0.2v-0.2l-1-0.3l-0.5,0.1l-1.3-0.1l-0.4-0.5l-2,0.1l-0.2,0.3   l0.5,0.2l0.7,0.2l-1,0.2l-1.2,0.4l-2.2,0.2l-0.4,0.6v-0.9l0.8-0.2l0.1-0.3h1.1l0.6-0.8h0.4l0.4-0.2v-0.5l1-0.4l0.5,0.1l0.1-0.4   l0.6-0.1l0.4-0.5l-0.4-0.4l-0.3-0.5h-0.4l-0.9-0.6l-0.6-0.1l0.1,0.3l-0.6-0.4l-2.8-0.7l-1.2,0.2l-1-0.2l-1.7,0.1l0.3,0.3l-1.2,0.1   l-0.5-0.1l0.5-0.7l-1.9-0.2l-0.8,0.2l-1-0.2l0.6-0.2l0.3-0.3l-0.4-0.3h-1.2l-1.1-0.2l-1.7,0.3l-0.6,0.7v0.4l0.6,0.1l0.1,0.3   l-0.8,0.2l-1.8-0.1l0.3,0.4l-1.8,0.6l-0.3-0.1l-1,0.2v-0.4l-1.6-0.1l-0.5,0.3l-1.4-0.3l-0.2,0.3l-1.1,0.4v0.1h-0.9l-0.9,0.1   l-0.2,0.3l-0.6-0.2l-1.9,1.3l-1.2-0.1l-0.1,0.3l0.7,0.5l0.9,0.1l1.2,0.6l-1.9,0.1l-0.3,0.2l-0.7-0.1l-1.6,0.3h-2.3h-1.3v0.5   l1.2,0.6v0.4l0.4,0.3l0.7,0.2l1.5,0.2l0.3,0.3l0.9,0.6l-1.2,0.1l-0.6-0.1l-1.2-0.5l-2-0.6h-1.7l-0.5,0.5h0.7l0.4,0.4l-0.7,0.1   l-1.1-0.4l-1,0.2l0.7,0.7l2.5,0.3l0.5,0.2l0.6,0.5h-0.7l-0.3-0.3l-3.6-0.4l0.1-0.3l-0.7-0.4l0.2-0.9l-0.3-0.5l-1.3-0.5l-0.3,0.1   l0.6,0.4l0.5,0.8l-1.6,0.5l-0.3,0.7l0.9,0.3l0.9,0.6l0.7,0.4l0.2,0.3l-0.5,0.7l0.2,0.6l0.8,0.6l0.1,0.4l0.3,0.2l0.5-0.1l1.1-0.1   l0.4-0.1l1.7,0.2l0.5,0.2l1,0.2l0.5,0.6l0.9,0.5l-0.5,0.1v0.6l0.6,0.6l-1.1-0.5l-0.1-0.7l-0.4-0.3l-1-0.6l-0.4-0.4l-1.2,0.1   l-1.4,0.4l0.2,0.5l0.7,0.5l0.5,0.8l-0.8,0.7l0.2,0.6l-0.9,0.5l-0.5,0.1l-0.2,0.3l0.2,0.3l-0.4,0.1l-1-0.2h-1.3l-2-0.4l-0.2-0.3   l1-0.2l0.8,0.3l1.2-0.5l0.5,0.1l0.3-0.5l0.3-0.2l-0.1-0.5l0.4-0.1l0.2-0.6l-0.5-0.5l0.5-0.4l-0.3-0.2l-1.1-0.5l-0.8-0.6l-0.1-0.4   l-0.4-0.4l0.1-0.3l-0.4-0.6l-0.4-0.2l0.3-0.3l-0.3-0.8l-0.6-0.4l-0.8-0.2l-0.6-0.4l0.5-0.4l0.1-1l-0.7-0.7l-0.9-0.3l-0.3,0.1   l-0.5-0.2l-2.5,0.1l-0.4-0.1l-0.2,0.5l0.2,1v0.4l-0.4,0.5l-1.2,0.5l-0.2,0.3l0.4,0.5l0.6-0.1l0.3,0.1v0.5l0.6,0.7l-0.6,0.2l0.3,0.8   l0.2-0.3l1.6,0.3l0.2,0.4l0.8,0.6l0.8,0.1l0.1,0.5v0.6l-0.6,0.1l-2-1.1l-6.1-1.5l-2.8-0.2l-1.1,0.5l1,0.7l0.6,0.4l-0.5,0.4h-0.9   l0.3,0.5h-1l-0.2-0.4l0.4-0.1l-0.9-0.4l-1.6,0.3l-0.6,0.3l-0.6-0.2h-0.9l-0.8,0.2l-1.6,0.6l-0.9-0.3h0.6l-0.4-0.5l0.3-0.3l-0.6-0.1   l-1.9,0.7l-1.2,0.3l-0.4-0.1l-1.1,0.7l-0.7,0.3h-0.6l-0.1,0.3h-0.9l-0.2,0.2l0.2,0.2v0.8l-0.1,0.3l-0.3-0.1l-1.1,0.1l-1.1-0.1   l-0.4-0.5l-1.1-0.4l0.5-0.3l-0.1-0.2l0.7-0.2h1.2l-0.5-0.6l-0.8-0.4l-0.1-0.2l-1.1-0.2h-1.5l-1-0.1l1.3,0.6l0.2,0.6l-0.3,1.2   l0.2,0.2h0.3l0.5,0.1l0.2,0.4l0.2,0.4l-0.4,0.6v0.5l-1.2-0.6h-0.9l-0.7-0.2l-0.6,0.7l-1.2,0.3l-0.3,0.3l-0.9,0.5l0.1,0.3l0.9,0.7   l0.4,0.4l0.1,0.4h-0.4l-0.6-0.2l-0.3,0.2l-1.7-0.5l-0.4,0.3l-0.7-0.6l-1-0.4l-0.3,0.1v0.3l-0.4,0.1l0.1,0.4h0.3l0.8,0.6l0.8-0.1   l0.4,0.3l-0.1,0.1l0.3,0.4l-0.6,0.4l-1.9-0.4l-0.4-0.4l-0.8-0.3l-0.3,0.2l-0.9-0.5l0.2-0.1l-0.3-0.8l-0.9-0.6l0.6-0.4l-0.2-0.7   l-1-0.5h-0.2l-0.6-0.3l-0.4-0.4l-1.2-0.6l-0.3-0.4l0.8,0.1l0.9,0.7h0.9l0.5,0.4l0.5-0.1l1.1,0.3l4.4,0.6l1.4-0.2l1.2-0.5l0.6-0.6   l0.1-0.8h-0.4l-0.3-0.8l-0.5-0.2l-0.5-0.1l-0.9-0.6l-0.3,0.2l-5.4-2h-1.3l-1.8-0.3l-0.2,0.5v-0.6l-1.4-0.2l0.7-0.2v-0.2l-0.7-0.1   l-0.9-0.3l-0.6,0.5l-0.8-0.2l0.1,0.5h-0.9l-0.3,0.3l-0.8,0.1v0.4l-1.1,0.3l0.5,0.1l-0.3,0.5l0.3,0.6l1,0.3l1,0.7v0.2l-1,1l-0.1,0.2   l1.4,1.4l0.5,0.7l-0.6,0.2v0.8h0.3l-0.2,0.6l0.8,0.2l-0.2,0.4l0.1,0.2l0.9,0.4v0.4l-0.7,0.6l1.9,0.9l0.6,0.6l-0.3,0.8l-0.8,0.6   l-1.9,1.7l-1.9,1.3l0.6,0.1l1,0.3l0.4,0.4l1.2,0.1l0.6,0.3h-1.6l-0.4,0.4l-0.5-0.2l-0.3,0.4l-0.4-0.3v0.7l0.3,0.2l-0.4,0.1   l-0.2,0.6l-0.4,0.3l0.3,0.8l-0.1,0.4l0.4,0.6l-0.4,0.7l0.3,0.1l0.5,0.4l-0.2,0.9h0.5l0.6,1.1l-0.1,0.3l0.7,0.1l0.2,0.3l0.5-0.2   l0.5,0.1l0.2,0.6l1.1-0.4l1.2,0.6l-0.1,0.6l0.3,0.3l-0.2,0.6l1,1.1l0.8,0.4v0.5h0.5l0.7,0.3l0.4,0.4l-0.7,0.7l-1.3-0.2l-0.2,0.4   l0.6,0.4l0.1,1l0.2,0.2l0.1,0.3h0.8l0.2-0.5l0.6,0.2l0.6-0.3l1,0.1l0.4,0.3l0.2,0.5l0.5,0.2l-0.4,0.4l0.3,0.8l1.5,0.1l0.6,0.9v0.2   v0.3l0.4,0.3l0.8-0.1l0.9,0.4l1.2-0.5l0.4,0.3l-0.1,0.2l0.8,0.6l0.4-0.3l1.1,0.5l0.4-0.2l0.6,0.4l0.5,0.3h0.5l-0.1,0.2l0.3,0.3   l-0.7,0.6l0.7,0.3l-0.5,0.1l-0.1,0.5l0.3,0.1l0.4,0.5l-0.4,1l-1.4-0.1l-0.1,0.4l-0.6,0.2l-0.1,0.8h1l0.7-0.1v0.3l-1.2,0.7l-1.2,0.1   l1.5,1.2l-0.9,0.1l-0.4,0.8l0.2,0.6l-1,0.1l-0.5-0.1l-0.2,0.6l0.9,0.2l1,0.6l0.8,0.7l1,0.2l2.3,1.8l0.1-0.3h1l0.7,0.4l1,0.3   l1.4-0.1l0.7,0.2l0.6,0.4l1.2,0.5l-0.1,0.2l0.4,0.1l1.5-0.4l0.8,0.5l0.7,0.1v0.6l0.5,0.4h0.5l0.4,0.2l0.6,0.1l0.7,0.6l0.4,0.6   l1,0.1l0.2-0.5l0.5-0.2l0.3-0.5l-0.5-0.3l-0.5-0.8l-0.8-0.6l-0.1-0.5l-0.5-0.3v-1.8l-1.2-1h-0.5l-0.1-0.6l0.6-0.7l0.6-1.2l0.9-0.3   l0.2-0.3h0.7l-0.3-0.5l0.5-0.1l0.3-0.4l0.1-0.5l0.6,0.1l2.2-1.2l1.8,0.7l0.3-0.4l1.1,0.3l0.7,1.1v0.5l-0.2,0.9l0.3,0.4l0.6,0.2   l0.8-0.3l0.3,0.1l0.5,0.9l-0.7-0.5l-0.6,0.1l-2.9-0.4l-0.3-0.1l-0.6,0.1l-0.6,0.8l0.9,0.9l-0.4,0.2l-0.5-0.3l-0.9-0.1l-0.1,0.2   l0.1,0.5l1,0.2l1.1,1.6l0.1,0.6h0.6l0.6,0.7l1.4,0.2l-0.3,1.3l0.2,0.7l0.3,0.5l0.5,0.3v-0.6l0.5-0.8l0.9-0.2l0.2,0.5l0.2,0.3   l0.3,0.6l1.3,0.9l-0.1,0.5l-0.5-0.3l-0.4,0.6l-0.5,0.1l-0.3-0.5l-0.8,0.2l-0.5-0.7l-0.1,1.4l0.2,0.9l1.3,0.2l-0.5,0.9l0.2,0.5   l0.4-0.3l1.2,0.9l-0.2,0.9l0.2,0.4v0.9l0.4,1.1l0.5,0.1l0.9-0.4v-0.5l0.9-0.7l0.6-0.1l1,0.1l0.2-0.4h0.4l0.6,0.2l0.2-0.2l0.6,0.7   l1.3,0.3l0.4,0.4l0.8-0.2l0.9,0.4l0.2,0.4l0.5,0.4h0.3l0.4,0.3l0.7,0.7h1.4l0.1,0.7l0.2,0.4l-0.1,0.3l0.2,0.2l0.2,0.6l-0.2,0.7   l0.2,0.4v0.6l-0.5,0.6l0.3,0.4h-0.3l-0.3,0.4l0.2,1.1l0.6,0.3l0.1,0.2l-0.4,0.4l0.7,2v0.4l0.3,1.2l1.6,0.2l0.3,0.8v0.4l-1.4,2   l2.2,2.8l0.9,0.2l0.5,0.5l0.3-0.1l0.3,1.7l-0.1,0.4l0.3,0.1l0.5-0.1l0.2,0.3v0.5l-0.1,0.5h-0.7l-0.8,0.3l-0.1,0.3l-0.7,0.3   l-0.2,0.9v1.2h0.3v0.4l0.9-0.4l0.1,0.2l0.4-0.3l1.7,0.1l0.4-0.4l1.3,0.4h0.4l1.1-0.3h0.7l1.1-0.2l0.9,0.5l-0.1,0.8h0.6l0.5,0.2   l0.4,1.5l0.2,0.3l0.4,0.1l0.9,0.3l0.3,0.2l0.2-0.2l0.2,0.6l0.3,0.6l1.1,0.6l0.9,0.2l0.2-0.2l1.2-0.3l-0.3,0.2l-0.2,0.7h-0.4   l-1.2,0.6l-0.4-0.4l-0.2,0.3l2.4,2.6l1.2,0.8h0.4l2-1.1l0.3-0.9l-0.3-0.3l-0.1-0.3l0.3-0.6h0.9l-0.4,0.1l-0.2,0.4l0.2,0.7h0.7   l-0.6,0.5l0.6,0.8l0.2,0.5v0.6l-0.2,0.4l-0.1,1l0.3,1.2v0.7l0.3,0.1l0.2,1.4l0.8,2.4l0.2,1.1l0.4,1.1l0.7,1.1l0.3,0.8l-0.1,0.2   l0.7,0.7l0.3,0.6l0.3,0.9l0.2,0.3l0.5,2.1l0.6,1.4l0.9,1.1l0.2,0.4l0.2,0.3l1,2.5l0.4,0.6l-0.2,0.1l0.1,0.8l1.3,2.2l0.6,0.6   l0.5,0.1l0.9-0.6l0.2-0.2v-0.6v-0.3l0.4-0.5l0.9-0.3l1,0.2l-0.2-0.3l-0.6-0.1l-0.2-0.1l0.1-0.4l0.5-0.9l-0.1-0.4l0.2-0.2l0.5-0.1   l0.5,0.1l-0.2-2.1l-0.2-0.5v-0.5l0.3-0.9l0.3-0.6l0.3-1.7l-0.2-0.3l-0.3-1.6v-0.8l-0.2-0.3l-0.2-0.7l0.1-0.6l0.3-0.7l0.6-0.5   l0.3,0.4l0.6-0.6l0.1-0.7l0.5-0.1l0.3,0.2l1.1-0.6v-0.5l-0.1-0.2v-0.3l0.5-0.5l1.3-0.9l0.1-0.4l0.6-0.5l0.6-0.3l1-1.8l0.8-0.9   l0.3-0.2l1.6-0.6l0.1-0.5l0.6-0.4l-0.1-0.3l0.3-0.4l-0.3-0.9l0.2-0.5l0.3-0.4l1.1-0.3l0.3-0.3v-0.4l0.3-0.1l-0.2,0.9l0.5,0.2   l0.2-0.3l0.3,0.3l0.2-0.6l0.1,0.6l0.6-0.1l-0.1-0.7l0.4,0.6l0.8-0.3l0.3-0.2v-0.4l0.5,0.6l0.3-0.1l0.1-0.7l0.4-0.3l-0.2-0.4v-0.1   l-0.1-0.1l-0.3-0.3l0.2-0.3l-0.1-0.3l0.3-0.6v0.6l0.8,0.5h0.6l0.6,0.6l0.4,0.6l0.3,0.9l-0.1,0.2l0.5,1.1l0.6,0.9l1.7,2l0.3-0.7   l0.6,0.6v0.2l0.7,0.6l-0.1,0.5l-0.7-0.4l0.3,0.7l0.6,0.5l0.1-0.5l0.6,1.2l0.4,0.6l0.1,0.5l0.3,0.9l-0.1,0.6v0.7l-0.2,1.9h0.4l0.4-1   v0.9l-0.1,0.3l0.8,0.5l0.4-0.5l0.2,0.5h0.2l0.4-0.6v-0.4l1.1-0.4l-0.1-0.4h0.6l0.3-0.6l0.1-0.4l-0.2-0.7l0.5,0.3l0.5,1.1l0.2,0.5   l0.7-0.2l-0.3,1.1l0.4,0.5l0.4,2l0.4,0.8l0.1,0.4l0.2,0.3v0.8l0.3,0.2l0.8,1.1l0.1,0.7v0.8v0.4l0.3,0.6l-0.3,0.4l0.3,0.2l0.1,0.6   l-0.1,0.6l0.2,0.4l-0.5,0.4l0.2,0.8l-0.1,0.3l0.2,0.5l-0.3,1.6l0.1,0.3l-0.1,0.3l-0.1,0.8l0.1,0.7v0.6l0.1,0.4l0.3-0.3l-0.1-0.9   l0.4-0.2l0.2,0.8l0.4-0.1l0.2,0.3v0.5l0.4,0.1l0.3,0.8h0.3l0.4,0.3l-0.1,0.5l0.9,1l0.4,1l0.2,1.5l-0.1,0.3l0.1,0.4l0.4,0.2l0.1,0.5   l-0.2,0.5l0.2,0.3l0.2,0.2v0.4l0.1,0.2l0.5,0.4l0.4,0.7l0.2,0.6l-0.2,0.2l0.5,0.5l0.5,0.2l0.2,0.4h0.2l0.4,0.3l0.6,0.4l0.3,0.4h0.3   l1,0.6l0.3,0.6l0.1-0.2l0.2-0.1l0.7-0.2l0.1,0.3h0.3l-0.3-1v-0.2l-0.7-1.5h-0.3l-0.3-0.5l-0.1-1l0.1-0.3l-0.3-0.4l0.2-0.5v-0.3   l0.1-0.5l-0.1-1l-0.8-1.4l-1.1-0.8l-0.3-0.7l-0.5-0.1l-0.6-0.5l-0.5-0.8l-0.4-0.3l-0.5,0.3l-0.5-0.3l-0.7-1l-0.5-2l-0.5-0.4   l-0.3-1.5l-0.6,0.1l-0.1,0.2l-0.4-0.2l0.1-0.3l-0.4-0.8l0.1-0.9l-0.1-0.3h0.2l-0.1-0.3l0.5-0.8v-0.9l0.4-0.9l0.1-0.5l0.2-0.5   l-0.2-0.9l0.2-0.9l-0.3-0.5l0.1-0.2l0.4-0.3l0.6-0.2l0.7,0.4l-0.1,0.7l0.1,1l0.4-0.1l0.6,0.2l0.6-0.3l1,0.9l0.2,0.7l0.4-0.5   l0.3,0.1l0.4,1.1l0.5,0.3l-0.2,0.5l0.2,0.2l0.1,0.7l0.5-0.1l0.1-0.6l0.3,0.2l0.2,0.5l-0.3,0.2l-0.1,0.3l0.4,0.2l0.3-0.4l0.1,0.2   h0.6l0.5,0.5l0.2,0.5l0.3-0.2l0.5,0.3l0.1,0.3l-0.3,0.2l-0.1,0.6l0.1,1.6h0.2l-0.3,0.4h0.5l0.5-0.4l0.3-0.7l1.2-0.6l0.1-0.2   l-0.5-0.6l0.8,0.5l0.3-0.1l0.1-0.6l0.2-0.4l0.3-1.1l0.2,0.5h0.5l0.9-0.7h0.3l0.2-0.5h0.3l0.9-0.8l0.4-0.1l-0.1-0.5l0.3,0.1l0.2-0.7   l-0.3-0.8l0.3-0.3l-0.3-0.5l0.4-0.6l-0.4-0.6l0.1-0.5l-0.8-2.4v-0.3l-0.5-0.8l0.1-0.3l-0.3-0.4v0.2h-0.1l-1.2-1.4l0.1-0.3l-0.5-0.4   l-0.4,0.1l-1.3-1.3l-0.2-0.4l-0.7-0.5l-0.6-0.8v-0.5l-0.2-0.3l-0.4-0.2l-0.3-0.1l-0.5-0.7l-0.2-0.4l-0.4-0.5l0.2-0.2v-1l0.2-0.4   l0.1-0.5h0.3l0.6-0.6l-0.1-0.6l0.4-0.3l-0.3-0.3l0.2-0.4l0.5,0.2l0.6-0.2l0.5-1l0.3,0.2l0.3-0.2l-0.2-0.1l1.3-0.4l0.6,0.3l0.3,0.4   l0.6-0.2l0.8,0.2l-0.3,0.1v0.7l0.2,0.8l0.4,0.9h0.8l0.3-0.5l-0.5-0.4v-0.3l-0.3-0.1l-0.1-0.3l0.7,0.2v-0.7l0.3-0.3l2.7-0.7l2.1-1   v-0.4l-0.5-0.8l0.2-0.6l0.9,1.4l0.7,0.2l0.3-0.4l0.4-0.5l0.3,0.3l0.5-0.5l0.7,0.1l0.1-0.3l0.3,0.3l1.2-0.4l0.6-1.4l0.3,0.1l1.1-0.7   l0.4-0.8l-0.2-0.7l0.4,0.1l0.6,0.1l0.3-0.5l-0.2-0.2l0.5-0.1l-0.2-0.6l0.6-0.1l-0.4-0.4l0.2-0.4l0.6,0.5v-1.4h-0.4l0.1-0.5l0.5-0.2   l-0.8-0.7l0.8-0.3l0.5-0.7l0.2-0.7l-0.2-0.2l0.7-1.7l0.3,0.4l0.4-0.4l-0.6-0.7h0.5v-0.4l-0.6-0.4l0.8-0.3l-0.3-0.8l-0.7,0.2l1-0.8   l-0.9-0.1l-0.5-0.5l-0.6-0.2l-0.5,0.3l-0.3,0.1l-0.4-0.5h0.7v-0.5l0.7-0.5l0.7-0.1l-0.1-0.2l-0.6-0.7l-0.7-0.4l-0.9-0.7l0.6-0.1   l1.1,0.4l-0.5-0.7l-0.7-0.3l-0.1-0.5l-1.2-0.5l-0.2-0.8h-0.2l-0.2-0.5l-0.7-0.8l-0.1-0.3l-0.9-1.1l-1.2-0.5l-0.6-0.5h-0.3l-0.3-0.7   h0.3l0.1-1l0.6-0.9l-0.4-0.4l0.4-0.2l0.3,0.5l0.4-0.2l-0.1-0.5h0.3l-0.3-0.6l0.9-0.1v-0.2l1.1-0.4l0.2,0.3l0.4-0.2v-0.5l-0.2-0.3   l-1.1-0.4l-0.7,0.2l-0.6-0.4l-1.2-0.4l-0.6,0.3v0.1l-0.5,0.5v0.5h-1l-0.6-0.5l-0.2-0.5l0.1-0.5l-0.6-0.6h-0.6v0.3l-0.9-0.3   l-0.9-0.6l-0.5-0.5v-0.9l0.4-0.3l0.7,0.4l0.3-0.3l0.6,0.1l0.3-0.5l-0.2-0.4l0.1-0.3l0.1-0.4l1.3-0.6l0.2-1l0.4-0.6l1,0.2l0.1-0.3   l1.2,1l-0.3,1.3l-0.5,0.2l0.2,0.4l-0.3,0.2l0.6,0.3h0.5l-0.8,0.9l0.3,0.5l0.8-0.3l-0.2-0.3l0.7-0.1l0.1-0.7l0.9-0.5l0.4-0.1   l-0.1-0.3l0.4,0.1l0.1-0.3l0.9,0.1l0.3-0.2l0.3,0.2l0.2,0.1l0.5,0.4l-0.1-0.3l1.2,0.5l0.2-0.1l0.1,0.4l0.1,0.3l-0.1,0.5l0.1,0.4   l0.7,0.2l-0.6,0.3l-0.1,0.5l-0.2,0.4l1.1,0.2l-0.4,0.2l0.8,0.3v-0.2l0.3,0.4l0.2-0.1l-0.3-0.6l0.4,0.1l0.3,0.4h0.5l0.3-0.2l0.2,0.2   l0.1,0.4l0.5,0.1l0.3,0.4l0.1,0.3l0.8,0.5l-0.2,0.3l-0.5-0.3h-0.4l-0.3,0.5l0.4,0.1h0.3l0.3,0.6l0.3,0.5l0.6,0.3l-0.3,0.3l0.4,0.3   h-0.3l-0.1,0.3h0.3l-0.2,0.2l-0.1,0.6l0.3,0.6l0.4,0.1l-0.3,0.5l-0.1,0.5l0.3,0.1l0.4-0.4l0.1,0.6l0.3-0.3h0.3l0.1-0.4l0.3,0.1   l0.4,0.3l0.1-0.2l-0.4-0.5l0.2-0.2l0.5,0.5v-0.5l-0.4-0.1l0.2-0.2l1.4,0.3l-0.1-0.4l0.3-0.1l0.6,0.1l0.3-0.3v-0.3l-0.1-0.4v-1h-0.3   l-0.3-0.9l-0.3-0.4l0.1-0.2l-0.4-0.8l-3.4-3.1v-0.3l-0.9-0.3l-0.6-0.6l-0.7-0.2v-0.7l-0.3-0.3v-0.2l0.4-0.2l0.1-0.3h0.6l0.4-0.3   l-0.1-0.2l0.5-0.4v-0.4l0.7-0.4l-0.3-0.6l-0.2-0.5l-0.2-0.2l-0.2-0.6l0.2-0.6l0.3-0.4l0.4-0.1l0.1-0.8l0.6,0.2v-0.8l0.1-0.8   l0.4,0.1l0.1,0.5l0.2-0.6l0.7,0.8l0.3,0.3h0.7l0.3,0.3l0.3-0.1l1-0.3l0.2-0.4l0.8-0.5l0.3-0.7l0.2-0.5l-0.1-1l0.4-0.3v-0.6l0.2-0.8   l0.7-1.3l0.1-0.8l-0.1-0.5l0.1-0.2l-0.3-1l0.3-0.6l-0.1-1l0.2-0.7l0.3-0.6l-0.4-0.7v-0.3l-0.3-0.7l-0.3-0.6l-0.6-0.6v-0.4l-0.9-1   l-0.5-0.7l0.2-0.1l-0.5-0.8l-0.2-0.6l0.2-0.4l-0.1-0.7l-1.1-0.5v-0.4l-0.4-0.5l-0.8-0.3l0.6-0.2l-1.3-0.8l-1.7-0.7l-0.4-0.3   l-1.2-0.6l-0.5,0.2h-0.9v0.7l-0.2,0.6h-1.2l0.5-0.7l-1-0.2l-0.5,0.5l-0.4-0.3l-0.1-0.4l-0.3-0.3l-0.5-0.8l-0.4,0.2h-1.2l-0.3-0.2   l-0.6-0.1l-0.4-0.4l0.2-0.4l0.6-0.3v-0.6l0.4-0.4l0.5-0.6l0.2-0.8l-0.1-0.7l0.2-0.6l0.6-1.1l0.6-0.2l-0.5-0.8l0.2-0.4l0.4-0.5v-0.6   l0.4-0.5l0.7-0.3l0.5,0.1l0.5-0.1l1.2,0.1l1.8-0.1l0.5,0.5h0.5l-0.2-0.6l1.9,0.3l0.8-0.2l0.5,0.3h0.8v-0.4l-0.5-0.4l0.1-0.2   l2.9,0.6l-0.1-0.2l0.5-0.1l1.1,0.6l1,0.1l-1.2,0.3l0.6,0.5l1-0.1l0.1-0.3l1.1,0.3v-0.7h0.6l0.8,0.4l0.3-0.2h1.2l-1-0.6l-0.9-0.2   l-0.3,0.2l-0.5-1.6l0.6-0.8l-0.4-0.6l0.5-0.4l-0.6-0.6l0.6-0.5l0.9,0.1l0.3-0.1h0.7l0.3-0.2l1.1,0.4l0.5-0.5l0.7,0.7v0.6l0.5,0.3   l0.2,0.3l0.7-0.1v0.3l0.5,0.5l0.5-0.3l0.2-1l0.3-0.3l0.1-0.5l1.1,0.4l0.1-0.4l-0.7-0.2l-0.3-0.5l-0.5-0.3l0.1-0.3l-0.5-0.3l1.2-0.3   l2,0.4h-1.1l-0.3,0.4l1.2,1.1l-0.2,0.1l0.3,0.4l0.6,0.2l-0.1,0.4l0.6,0.5l-0.5,0.1l-1,0.7l0.4,0.4l-0.4,1.2l-0.3,0.1l-0.1,0.9   l0.4,0.8l-0.5,0.8l-0.1,0.5h-0.9l0.2,0.4l-0.8-0.1l-0.1,0.3l1,0.6l-0.1,1.4l0.9,1.5l1,1.2l6.3,5.5l0.3,0.2l2.3,2.3l0.8,0.5l0.1,0.4   l0.7-1.5l0.1-0.6l-0.3-0.8l-0.6-0.8l-0.3-0.2l0.3-0.6l0.5-0.2l1,0.2l-0.8-0.7l-0.6-0.3l-0.6-1.1l0.4-0.7l0.5-0.1l0.5,0.1h0.6   l0.1-0.5l-1.2-0.7l-0.9-0.8l-0.6-1.1l0.5-0.3l1.1,0.4l0.1-0.4l-1.3-1l-0.7-0.1l-1.2-1.1l0.1-0.5l-0.5-0.4l-1.2-0.2l-0.6,0.1   l-0.8-0.8l-0.3-0.8l0.3-0.7l-0.5-0.2v-0.5l-0.6-0.3l-0.1-0.6l0.9-0.2v-0.3l1.3,0.6l0.1-0.3l-0.5-0.3l1.1-0.7l1,1.3l0.3-0.1l0.1-0.9   l1.2-0.5h1.4l3.1,1.2l-0.5-0.6l-0.2-0.5l0.6-0.1l-0.1-0.4l0.6-0.1l0.1-0.3l-0.2-0.2l0.6-0.9l0.2-0.4h0.8l0.5-0.6l0.8-0.4l0.2-0.3   l0.6-0.1l1.5,0.1l1.9,0.4l-0.5-0.9l-1.1-0.4l-0.1-0.4l-1.4-0.3l-1-0.6l-0.7-0.6h-0.4l-1.1-0.6l-0.4,0.1l-1.4-0.6l-0.4-0.3l1.4,0.2   l0.6-0.1l0.6-0.3v-0.4l0.5-0.2l-0.5-0.7l-1.2-0.4l-0.7-0.7h0.8v-0.5l0.6,0.5l0.2,0.4l1,0.3l0.6,0.5h1.5v-0.2l1.8,0.2l1.4,0.6   l0.1,0.3l1.2,0.4l0.7-0.1l1.3,0.3l1.1,0.5l1.5,0.3l0.9-0.3l-1.7-0.8l0.2-0.4l-0.6-0.3l-0.5-0.5h1.5l0.3-0.3l-0.5-0.3v-0.6h-0.5   l-0.6-0.4l-2.2-0.6l-1.3-0.5l-2.1,0.1l-0.7-0.4l-1.1,0.2l1.5,0.6l0.5,0.4l-0.2,0.3l-0.7-0.5l-1-0.2v-0.1l-1.1-0.7l-0.3-0.3   l-0.4-0.2l-0.5,0.2l-0.8-0.7l-4.3-1l-1-0.1l-1.7-0.5l-0.7-0.3l-0.9-0.2l-0.5-0.1l-1.1-0.2l-1.4-0.4L542.125,29.225z    M343.925,44.025l0.4-0.1l0.8-0.8l0.7,0.1l0.6,0.5l1.4,0.6l0.8,0.9l-0.2,0.4l-0.3-0.2l0.2,0.3l-0.1,0.4l-0.5,0.1l-0.7-0.2l-0.3,0.2   v0.4h-0.7l0.1-0.4l-0.5-0.6l-0.6-0.3l-0.1-0.6L343.925,44.025z M350.125,40.925l1.4,0.5l0.7,0.3v0.3l-0.1,0.5l0.3,0.2l0.4,0.5   l0.7,0.6l0.1,0.4l-0.5,0.2l-0.3,0.4l-0.7-0.4l0.4-0.1l-0.8-0.7l-0.8-0.2l-0.3-0.3l-0.2-0.6l-0.4-0.4l1.4,0.5l0.5-0.4l-0.5-0.6l-0.8-0.1L350.125,40.925z 
				M538.525,84.125l-0.4,0.1l-0.7-0.4l0.2,0.7l0.9,0.1l0.1,0.6l-0.6-0.3v0.4l-0.4-0.2l-0.3-0.6l-0.5,0.1   l0.2,0.3l0.1,0.4l-0.3,0.2l-0.1,0.3l0.6,0.5l0.1,0.3l-0.3,0.5l0.3,0.2h0.4l0.3,0.4l0.3,0.6l-0.1,0.3l0.3,0.8l-0.2,0.9l0.2,0.6   l-0.1,0.3l-0.5,0.4l0.1,0.4l-0.1,0.5l-0.4,0.4l-0.3,0.1l-0.8,0.4v0.3l-0.4,0.1l-0.3-0.2l-0.2-0.5h-0.3l0.5-0.7l-0.3-0.2l-0.6,0.3   v0.5l0.4,0.8l-0.2,0.8l-0.3,0.3v0.5l0.5,0.7l-0.5,0.3l-0.6-0.2l-0.1,0.4l-0.3-0.2l0.1-0.4l-0.3-0.1l-0.3,0.3l-0.7-0.1l-0.5,0.3   l-0.7,0.1l-0.4-0.1l-0.2,0.2l-0.4-0.2l-0.3-0.1l-0.7,0.3l0.2,0.2l-0.3,0.4l-0.4,0.4l-0.3,0.5l-0.3,0.1l-0.2,0.5h-0.8l0.2,0.5   l0.1,0.6l0.2-0.3l0.5,0.3l0.5-0.3l1.1,0.4v-0.3l-0.2-0.5l0.2-0.2l0.5,0.3l0.9-0.3l0.8-0.4l0.4,0.2l0.8-0.8l0.4,0.1l0.7,0.3l0.6-0.2   l0.1,0.3l-0.4,0.6l0.4,0.3l-0.1,0.5l0.8,0.4l0.2,0.4l0.6,0.2l0.3-0.3v-0.6l0.1-0.3v-0.4l0.5-0.3l0.5,0.1l-0.2-0.3l-0.8-0.4   l-0.1-0.7l0.2-0.3l0.3,0.8l0.2-0.1l0.5-0.1l0.2,0.2l-0.3,0.3l0.8-0.2l1.2,0.2v-0.7l0.1-0.4l0.3-0.1l0.4,0.3h-0.2l0.2,0.6l0.3,0.3   l0.2-0.2v-0.4l-0.2-0.5l-0.1-0.3l0.3-0.2l0.7,0.4l-0.1-0.8l0.2-0.3l0.3,0.2l-0.1,0.5v0.4l0.3,0.5l0.6-0.5l-0.1-0.5v-0.3l0.5-0.4   l-0.9-0.8l-0.1-0.3l-0.3-1.1l0.2-0.4l-0.2-0.8l-1-1.7l0.2-0.5l0.6,0.2l-0.5-0.8v-0.7l0.3-0.2l-0.3-0.5l0.1-0.4l-1.1-1.1l-0.1-0.4   l-0.6-0.6l-0.4-0.1L538.525,84.125z M486.925,169.725l-0.6-0.6l-0.2-0.8l-0.1-0.1l-0.6-0.5l-0.6-0.1l-0.1-0.1l0,0l-0.1-0.6l-0.5-0.5l-0.5,0.1   l0.3,0.9l-1-1.1l-0.4-0.7h-0.5l0.1-0.6l-1.5-1.3l-0.9-0.5l-0.2-0.3l-0.5-0.3h-0.4l0.2-0.7l-0.5-0.3l-0.2-0.7l-0.8-0.7l-0.6,0.2   l-0.7-0.3l-0.4,0.1l-0.9-0.1l-0.7-0.6l-0.3-0.1l-0.7,0.1v0.6l0.2,0.3l0.2,0.6l2.1,2.3h0.5l0.2,0.1l1,1.5l0.4,0.3l0.1,1l0.2,0.2   l0.7,0.2l0.8,0.5l0.5,0.7l-0.1,0.2l0.2,0.3l0.6,2.4l0.9,0.3l0.2,0.3l0.1,0.5l0.5,0.5l0.6,1.1l-0.1,0.2l0.4,0.4l0.6,1.5l-0.1,0.3   l0.5,0.9l0.4,0.2l0.5,1.2l1.1,0.8l0.1,0.7l0.8,0.7l0.3,0.4l0.6,0.4l0.3,0.4l0.6,0.2l1.4,2h0.3l-0.2-0.9h0.2l0.4,0.4l0.5,0.2   l0.2-0.8l0.2,0.4l0.3,0.1v0.3l0.3,0.1l0.2-0.4l0.2-1.5v-0.3l0.1-0.7l-0.2-0.5l0.3-0.8l-0.2-0.4l0.1-0.6l0.3-0.3v-0.4l-0.4-0.3v-0.4   l-0.4-0.2l-0.1-0.4l-0.8-0.1l-0.5-0.2l0.1-0.3l-0.6-0.6l-0.2-0.6l-0.1-1.1l-0.8-0.1l-0.2,0.2l-0.9-0.8l0.1-0.5l0.6-0.5h-0.8l1-0.5   l-0.2-0.6l-0.5-0.4l-1.5,0.6l0.8-0.5l-0.2-0.5l-0.1-0.1H486.925z M517.525,159.825l-0.4-0.1l-1.1-0.7h-0.4l-0.1,0.2h-0.3l-0.1-0.2l0.4-0.1l-0.3-0.5l-0.3,0.3l-0.3-0.1   l-0.1-0.4l0.3-0.2l-0.2-0.4l-0.7-0.4l-0.2-0.3l0.1-0.3h-0.5v0.5l-0.3,0.3l-0.1-1l-0.3,0.7l-0.1,0.4l-0.4,0.5l-0.3,0.4l-0.1,0.5   l-0.3,0.2l-0.1,0.4l-0.4-0.1l-0.5,0.6l0.5,0.2l-0.1,0.4l-0.3,0.3l-0.3-0.2l-0.1,0.2l0.2,0.2l0.2,1l-0.4-0.1l-0.2-0.9l-0.5,0.1   l0.2,0.8l-0.1,0.5l-0.3,0.3l-0.3-0.5l-0.3-0.1l-0.2-0.6l-0.5-0.1l0.1,0.4l-0.1,0.4l-0.4,0.5l-0.5,0.5l-0.8,1.3l-1.6,0.5l-0.8,0.1   l-0.4,0.4l-0.3-0.2l-0.1,0.7v0.8l-0.3,0.8v0.5l-0.5-0.3l-0.2,0.3l-0.3-0.6l-0.3-0.2l-0.1,0.3h-0.7l-0.4-0.4l-0.1-0.5l-0.2,0.2   l-0.4,0.1l-0.1,0.3l-0.4,0.6l-0.2,0.7l0.1,0.5l-0.3,0.3l0.2,0.4v0.6l0.2,0.1l0.5,0.6l-0.3-0.1l-0.2,0.6l0.1,0.6l0.5,0.1l0.2,0.3   l-0.4-0.1v0.4l0.4,0.3v0.6l0.5-0.3l0.3,0.2l0.3,0.2l-0.1,0.7l-0.2,0.3l0.3,0.3v0.2v0.4l0.3,1.6l0.5-0.3l0.2,0.5h0.6l0.6-0.3   l0.5,0.2l0.2-0.3l0.2,0.4v0.9l0.2,0.2l0.6-0.6l0.3,0.1l0.2,0.1h0.3l0.6-0.5l0.1-0.5l0.5,0.7l0.3-0.2h0.3l-0.1,0.5l0.5,0.1l0.4-0.2   l0.7,0.3l0.3,0.3v1.1h0.1l2.4-1.2l0.2,0.4l-0.1,0.5l0.5-0.3l0.1-0.3l-0.1-0.7v-0.6l0.2-0.6v-0.5l0.3-0.1l0.2-0.8h-0.6l0.3-0.3v-0.5   l-0.4-0.1l0.6-0.3v-0.3l0.4-0.2v-0.3h0.5l0.5-0.9h0.6l-0.1-0.4v-0.6l-0.2-0.2l0.2-0.4l-0.2-0.3l0.2-0.4l0.3-1l0.7-0.3l0.5,0.2h0.8   l0.4-0.5h-0.3l-0.3-0.5l-0.4-0.2l-0.1-0.3l-0.5-0.3l-0.3-0.3l-0.2-0.1v-0.5l0.3-0.5l-0.6-0.6v-0.3l-0.3-0.7l-0.5-0.3l0.3-0.4   l-0.8-0.4l1.3-0.2l-0.2-0.4l-0.4-0.3l-0.1-0.4l0.1,0.1h0.1l0.2-0.2l-0.2-0.2l0.2-0.1l0.6,0.4l0.7-0.3h0.4v-0.3l-0.6-0.3l-0.3-0.5   l0.5-0.3l0.2,0.3h0.3l1-0.5v-0.4L517.525,159.825z M543.125,79.925l-0.4,0.2l-1.1-0.9l-0.1-0.4v-0.7l-0.2-0.2l-0.1,0.3l-0.3,0.6h-0.8l-0.3-0.4l-0.8,0.1   l-0.3-0.2l-4.7-2.7l-0.4,0.1l0.2,0.4l0.8,0.8l0.4,0.5l0.1,0.6l0.5,0.8l-0.2,0.3l0.6,1l-0.2,0.4l-0.4-0.2l-0.3,0.1l-0.7-0.4   l-0.1,0.3l0.6,0.4l-0.1,0.5h-0.2l-0.3,0.2l0.3,0.9l1,0.6v0.6l0.4,0.5l0.4,0.1l0.2-0.3l-0.2-0.3l0.2-0.3l0.7,0.3l0.2-0.3l-1.1-0.7   l-0.4,0.1l-0.6-0.3l-0.1-0.7h0.5l0.7,0.6l0.5-0.6h0.6l3.3,1.4l-0.3-0.8v-0.7l0.3-0.5l0.4-0.3l0.3,0.2h0.5l0.5-0.4l0.5-0.1l0.2-0.4   L543.125,79.925z M498.025,185.625l-0.3-0.7l-0.5-0.5l-0.3,0.2l-0.5-0.4l-0.4,0.2l-0.3-0.2l-0.2-0.5h-0.6l-0.1,0.3h-0.4   l-0.1-0.1h-0.4l-0.4-0.2l-0.2,0.2l-0.2-0.3l-0.4,0.4l-0.1,0.8h-0.4v0.4l-0.3,0.4h1l0.6,0.3h0.4v0.2l-0.3,0.4v0.2l1.9,0.3l0.8,0.5   l1.1,0.1l0.7-0.3l0.3,0.2h0.5l1.1,0.2l1.5,0.8h0.7l0.6,0.1l0.4,0.3l0.3-0.3l1,0.2l0.6,0.2l0.5-0.1l0.2-0.2h0.4l1.7,0.7l0.3,0.3h0.5   l-0.5-0.7l0.2-1.4l-0.7-0.4l-0.4,0.3h-0.6l-0.3,0.1l-1-0.5l0.1-0.6l-0.4-0.1l-0.1-0.7h-0.8l-0.2-0.2l-0.5-0.1l-0.3-0.2l-0.2,0.1   h-0.5l-0.2-0.5l-0.2-0.1l-0.5,0.2l-0.2,0.7l-0.3,0.3l-0.5-0.2l-0.3,0.1l-0.9-0.2l-0.4,0.1L498.025,185.625z M520.125,170.225l0.4-0.1l0.9,0.2l0.2-0.1l0.6-0.1l0.4,0.2l0.6-0.1h1.9l0.3,0.3h0.6l0.1,0.2l1.6-0.5   l0.4-0.7l0.4-0.4l0.4-0.8l0.2-0.2l-0.1-0.4h-0.3l-0.4,0.2l-0.5,0.4l0.1,0.4h-0.4l-0.2,0.4l-0.7,0.3l-1.7-0.2l-0.3,0.3l-0.3-0.3   l-0.4-0.1l-0.9-0.2h-0.7l-0.2-0.4l-0.5,0.1l-0.2-0.2l-0.4,0.1l-0.2,0.5l-0.4,0.6l-0.5-0.5l-0.5,0.6l-0.4,1l0.1,0.3l-0.2,1.3v0.2   l-0.4,0.5l-0.1,0.5l-0.3,0.3l-0.1,0.9l0.1,0.4l-0.2,0.4l-0.3,0.5v0.4l-0.5,0.3l-0.2,0.3l0.2,0.3l-0.2,0.4l0.3,1.1l0.7-0.4l0.4,0.2   l-0.2,0.4l0.3,0.7v1.1l-0.3,0.4l0.1,0.4l-0.3,0.8l0.1,0.6l0.6,0.3l0.3-0.3l1,0.1l-0.3-1l0.3-1.1l-0.1-0.6l0.1-0.1l-0.1-0.5l0.2-0.8   v-0.4v-0.5l-0.2-0.2l-0.2-0.4l0.8-0.6l0.3-0.2l0.5,0.1v1.2l-0.3,0.3l-0.1,0.3l0.8,1l0.5,0.2l-0.2,1.2l0.1,0.2l0.3,0.2l0.7-0.1   l-0.1-0.2l0.1-0.3l0.9-0.4l0.3,0.2l0.3-0.1l0.1-0.1l-0.2-0.7h-0.3v-0.3l-0.8-0.6l0.6-1l-0.4-0.2v-0.3l-0.5-0.4l-0.3-0.8l-0.9-0.7   l0.6-0.1l0.3-0.5l0.7-0.2l0.4-0.3l0.6-0.8l0.2-0.4h0.4l0.4,0.3l0.4-0.4l-0.1-0.4l-0.3-0.2h-0.3l-0.9,0.4h-0.7l-0.2,0.3l-0.3,0.1   l-0.4-0.1l-0.2-0.2l-0.3,0.2l-0.5,0.6l-0.2,0.5l-0.8-0.1l-0.2-0.3l0.1-0.2l-0.4-0.5h-0.2l-0.4-0.6l-0.1-0.8v-0.3l0.4-0.9   L520.125,170.225z M519.925,132.825l-0.7-0.3l-0.8-0.5l-0.5,0.1l-0.2-0.1l-0.3,0.1v0.5l-0.2,0.5l0.1,0.7l-0.2,0.4l0.3,0.3v0.4   l0.2,0.5l-0.2,0.8l0.4,1l-0.2,0.2h-0.3l-0.2-0.2l-0.3-0.2l-0.2-0.3l-0.1,0.4l0.1,0.6l0.3,0.2v0.2l0.2,0.4l-0.1,0.2l0.2,0.4l0.4,1   l0.3,0.2l0.3,0.5l0.4-0.1l-0.2-0.7l0.6,0.1l0.2,0.3v0.3l-0.6,0.6l0.2,0.7h0.5v0.4l0.3,0.1h0.4l0.4-0.1v-0.3l0.3-0.2l0.9,0.3   l0.2,0.3l0.3,0.2l0.3,0.7l0.2,0.1l0.2-0.1l-0.2-0.7l-0.3-0.2v-0.6l0.5,0.6l0.8,0.4l0.3,0.5v0.5l0.9,0.2l0.7,0.8l0.1-0.7l-0.1-0.2   l0.1-0.3l-0.7-0.3l-0.7-0.8l0.1-0.3l0.7,0.1l-0.5-0.5l-0.9-0.2l0.2,0.5h-0.5v-0.3l-0.1-0.4l-0.7-0.5h-0.4l-0.5,0.5l0.3,0.2   l-0.1,0.2l-1-0.5v-0.2l-0.3-0.3l-0.1-0.5l0.2-0.2l-0.8-1.3l0.3-0.8l-0.1-0.1l-0.1-0.3l0.3-0.3l0.8-0.4v-0.4l0.3-0.7v-0.6l-0.2-0.5   l-0.3-0.2l-0.3-0.5l-0.1-1l0.2-0.3l-0.1-0.3l-0.4-0.3v0.3L519.925,132.825z M524.825,153.325l-0.5,0.1l-0.2,0.3v0.3l-1.3,0.4l-0.2,0.5l0.2,0.4l-0.2,0.6l-0.2,0.2l0.1,0.4l0.3,0.2   l0.3-1.1l0.5-0.7h0.4l0.1,0.7l0.3-0.1l0.2-0.5v0.5l0.4-0.1l0.3-0.7l0.5,0.3l0.5,0.1l0.4,0.6l-0.3,0.5l-0.1,0.8l0.2,0.8l0.4,0.4   l1.2,0.7l0.6-0.5l0.1,0.2l-0.2,0.4l0.3,0.5h0.2l0.4-1v-0.3l-0.2-0.7l-0.4-0.1l0.2-0.9l0.3-0.3l0.2,0.5v-1l0.6,1.8l0.3,0.5v-1.4   l0.3-0.1l0.3-0.6v-0.4l-0.2-0.5l-0.3-0.5v-0.6h-0.2l0.1-0.7l-0.5-0.1l0.3-0.7l-0.3-0.8l-1.4-1.1l-0.1,0.4l0.3,1v0.3l-0.6-0.2   l-0.1,0.7l-0.6-0.5v1.2l-0.6-0.3l-0.3,0.2v0.6l-0.5,0.1h-0.2l-0.1-0.6l-0.2-0.3l-0.7-0.2L524.825,153.325z">
			</path>
		</a>
		<a href="Amerique-du-nord.html">
			<path id="Z7" title="Océanie" d="
				M541.525,172.725l-1.2,0.2l0.1,0.2l-0.1,0.4l-0.4,0.6h-0.1l-0.1,0.2l0.4,0.1l0.5-0.2l0.7,0.2l0.4,1.1   l0.4,0.5l0.5-0.2l0.3,0.3l0.5-0.1l0.6-0.2h0.6l0.3,0.2l0.2,0.3l-0.5,0.3l-0.4-0.1l-0.3-0.2l-0.4,0.1l-0.6,0.7l-0.4-0.2h-0.7   l-0.3,0.5h0.6l0.5,0.4l0.2,0.4l0.3,0.2l0.1,0.3l-0.3,0.2l0.2,0.9h0.7l0.4-0.4l-0.1-0.3l0.4-0.4l0.1-0.7v0.9l0.3-0.1l0.2,0.5h0.4   v0.1l0.3,0.3l0.2-0.2l0.6,0.7l0.8,0.4h0.4l0.8,0.1l0.7,0.4h0.2l0.7,0.4h0.4l0.6,0.1l0.2,0.4h0.4l0.3,0.5l0.5,0.1v0.7l0.3,0.4l0.3,1   l0.4,0.5l0.9,0.7l-1.2-0.2l0.5,0.5l-0.4,0.2l0.2,0.3l-0.8,0.2l-0.7,0.4l-0.5,1.1l-0.2,0.6l0.4-0.1h1l0.3-0.1l0.5,0.1l0.8-0.6   l0.2,0.2l0.5-0.2h0.6l0.1,0.2l0.8,0.8l0.6,1l0.3,0.1l0.3,0.3l0.3-0.3l0.5,0.3l1.1-0.2l0.8,0.4l1.5-0.8v-0.4l-0.7-0.9l1.2-0.3   l-0.1-0.4h0.7v-0.1v-0.6l0.7,0.2l0.5-0.3l0.5,0.1l0.1,0.2l2.2,0.7v0.1l0.2,0.3l0.2,0.4l0.4,0.7v0.4l0.5,0.2l0.2,0.8h0.5l0.3,0.8   l0.4,0.4l0.3,0.2l0.5-0.2l0.5,0.3h0.3l0.1-0.2l0.5,0.4l0.3-0.2l0.7,0.4h0.6l0.3,0.5l0.7,0.1l0.5-0.4l-0.5-0.4h0.5l-0.8-0.5   l-0.6-0.1l-0.2-0.4l0.6-0.2v-0.2l-1.1-0.1l-0.4-0.5l0.3-0.4v-0.3l-0.3-0.1l-0.2,0.2h-0.8l-0.2-0.8l-0.4-0.3l-0.1-1l-0.4-0.3h-0.4   v-0.2l-0.8-0.8l-0.1-0.5l-0.3-0.6l0.1-0.4l0.3-0.1l0.8,0.1l0.5-0.2v-0.7l-0.6-0.7l-0.2-0.1h-0.5l-1.2-0.7l-0.8-0.3h-0.5v-0.3   l0.2-0.5v-0.5l-0.8-1h-0.5l-0.1-0.3l-0.7-0.5l-0.1-0.4l-0.5,0.2l-0.5-0.2l-0.9-0.8l-0.9-0.1l-1.7-0.6l-0.2-0.3l-0.1,0.1l-1.3-0.8   h-0.4h-0.5v-0.3l-1-0.3l-0.7,0.1l-1.2-0.7l-0.5-0.2l-0.3-0.3l-1.1-0.4l-0.5-0.3l-1.3,0.7l-0.1,0.2l0.3,0.3l-0.6,0.2l-0.3,0.3   l-0.5-0.2l-0.3,0.2l-0.2,0.6l-0.5,0.4l-0.2,0.5l-0.8,0.8h-0.8l-0.3-0.3v-0.6l-0.3,0.1l-0.1-1l-0.2-0.1l-0.2,0.8l-0.5-1.1l-0.1-1.4   l0.3-0.2l0.1-0.4l-0.4-0.8l0.2-0.3l-0.3-0.2l-1.1-0.1l-0.8-0.5l-0.4-0.2l-0.6-0.1l-0.5,0.2L541.525,172.725z M540.425,194.625l-0.3,0.3l0.3,0.4l0.9,0.1l0.2,0.4l-0.1,0.8l-0.1,0.1l-0.7,0.1l-0.3,0.3l-0.3-0.1l-0.9,0.1   l-0.2-0.5l-0.5,0.2v0.4l-0.9,0.1l-0.2,0.6h-0.3l-0.2,0.6h-0.3l0.1,0.8l-0.1,0.3l-0.5-0.1l-0.4,1.2l-0.5,0.3l-0.4,0.6l0.6,0.3   l0.1,0.4l-0.3,0.2l0.1,0.7l-0.4-0.5l-0.4-0.2l-0.3,0.1l-1-0.3l-0.9,0.9l0.1-0.7l0.3-0.3l-0.5-0.3l-0.5-0.8l-0.5-0.6l-0.3,0.2   l-0.3-0.6l-0.2,0.2l-0.4,0.7l-0.3-0.5l-0.5,0.5l-0.2-0.5l-0.3,0.7l-0.4,0.7l-0.3-0.8l-0.3,0.8h-0.5l-0.2,0.3l0.4,0.6l-0.2,0.2   l-0.5-0.3l-0.7,0.6l-0.1,0.5h-0.3l-0.4,0.4l0.2,0.7l-0.3,0.4v0.4l-0.9-0.4l-0.1,0.5l-0.1-0.6l-0.3,0.1l-0.3,0.8l0.7,0.5l-0.2,0.9   l-0.3-0.5l-0.4,1.3l-0.7-2.5l-0.5,0.6l-0.4,0.2l-0.2,0.4l-0.7,0.5l-0.1,0.6v0.4l-0.1,0.6h0.3l-0.1,0.3l-1.2,0.9l-0.6,1.2l-0.5,0.6   l-1.9,1l-1.2,0.1l-0.2,0.3l-0.2-0.2l-0.7-0.1l-0.6,0.7l-1.2,0.1l-1,0.7l-0.7,0.1l-0.3-0.2l-0.5,0.2l-0.1-0.3l-1.8,1.1l-0.2,0.3   l-0.8,0.6l-1,0.4l-0.5,0.3l-0.4,0.5l-0.4,0.8l-0.4,0.2l0.3-1.5h-0.3l-1,1.5l0.2,0.8l-0.2,1.2l-0.7,0.9l-0.4,1.1l0.3,0.6v0.8   l0.2,0.1l0.5,1.5l-0.3,0.9l-0.3,0.3l-0.2-1l-0.5-0.7l-0.2,0.2l0.1,0.8l0.5,0.4l-0.3,0.6l-0.9-1.3l0.1,0.9l0.5,0.9l0.3,1.4l-0.1,1.3   l0.4,0.8v0.7l0.3,0.8v0.6l-0.4,1.2l-0.1,1l0.5,2.4l-0.3,1.1l-0.5,1l-0.4,1.3l-0.8,0.7l-0.6-0.1l-0.4,1.1v0.6l0.3-0.2l0.6,0.5   l0.4,0.7l0.9,0.4h0.9l0.8,0.2h0.5l0.6-0.4l0.4-0.1l0.2-0.3l0.6-0.2l0.3-0.4l0.9,0.1l0.6-0.8l1-0.5l0.7,0.2l0.3-0.2l1.5-0.2l0.7,0.2   l0.4-0.1v0.4l1-0.3l0.9-0.1v0.3l0.6-0.1l0.6-0.5l0.5-0.3l0.6-0.8l0.5-0.4l0.8-0.2l2.6-1.3h2.4l1.8-0.5l1.7-0.8l2.1-0.2l1.1,0.1   l0.7-0.3l0.9,0.5l0.6,0.7l0.5-0.1l0.1-0.1h0.4l0.5,0.5l0.6,0.1l0.4-0.1l0.1,0.5h0.4l0.2,0.5l-0.4,0.1l-0.2,0.5l0.2,0.5l0.7,0.1   l-0.1,0.8l0.4,0.6l-0.2,1.4h-0.4l0.4,0.8l0.5,0.2l0.3-0.8l0.6-0.6l1.1-1l1.4-0.5l0.9-1.1l0.5-0.4l0.6-0.9l-0.1,1v0.3l-0.3,0.1   l-0.2,0.8l-0.9,0.7l-0.6,0.9l-0.2,0.6l-0.6,0.7l-0.5-0.1l-0.6,0.7l1.1-0.3l0.3,0.2l1.7-2.2l0.3,1.4l-0.7,1.1l-0.9,0.6l0.7,0.1   l1.5-0.7l0.1,0.2l-0.4,0.6l0.3,0.6l-0.1,1.4l-0.6,0.6l-0.2,0.5l0.2,0.7h0.2l0.1,0.8l0.3,0.3l0.6,0.1l0.5,0.7h0.3l0.3-0.3l0.5,0.3   h0.6l1.3,1l3.5-2.2v0.6l-0.8,0.6l0.8,0.2l0.6,0.3l-0.1,0.5l0.3-0.2l0.3,0.7l0.5-0.8l0.8-0.1l2.3-1.5l1.1-0.3l2.1-0.1l1.2-0.6   l0.5-1.2l1-1.3l0.2-0.5l0.5-0.8l1.2-1l0.6-0.3v-0.5l1-1.1l0.9-0.7l0.4-0.9l1.6-1.4l1.7-1l0.2-0.6l0.7-0.6l1.3-2l0.2-0.7l2.1-3.3   l0.4-0.3l0.2-0.8l0.3-0.6l-0.2-0.5l0.2-0.5l-0.1-0.5l-0.2-0.4l0.1-0.4l0.2-0.1l0.2-0.9l0.6-1.4l-0.2-0.1l0.3-0.9l0.8-1v-0.7   l-1.1,1.3l-0.6-0.2l0.2-0.8l-0.5-0.4l-0.2-1l-0.4-0.4v0.2l-0.4-0.1l-0.2-1l-0.5,0.1v-1.4l0.2-0.6l-0.3-0.9v0.8l-0.7-0.4l-0.1-0.6   l-0.3,0.4v0.7l-0.6-0.7l-0.1-1.1l0.2-0.5l-0.3-0.9l-0.7-0.9l0.3-0.4v-0.5l-0.3-0.5l-0.3,0.4l-0.2-0.6l-0.6-0.1l-0.1-0.4l-0.3,0.3   l-0.3-0.9h-0.5l-0.2-0.5h-0.4l-0.5-0.2l-0.3-0.4l0.3-1v-0.4h-0.5l0.5-1.3l-0.1-0.2l0.1-0.3l-0.3-0.7l0.3-0.3h-0.3l-0.1-0.2   l-0.5-0.7l0.3-0.9l-0.2-0.3l0.1-0.4l-0.2-0.6l0.3-0.4l0.2-0.6l-0.7-0.5l-0.5-0.3l-0.2-0.9l-1.1,0.8l-0.3-0.2v-0.8l-0.2-0.6l0.2-0.7   l-0.2-0.7l0.3-0.6l-0.4,0.2l0.1-0.6l-0.2-0.5l-0.3-0.1l0.4-0.8l-0.3-0.1h-0.1l-0.3-0.1l0.2-1l-0.2-0.9h-0.4l0.1-0.6l-0.8,0.6   l-0.1,0.8l-0.5,1.2l-0.6,1.1l0.5,0.3l-0.4,0.5l-0.4,0.3l0.1,0.6l-0.4,0.8l-0.2,0.6l0.2,0.5l-0.3,0.7l0.1,1.2l-0.8,1.8v0.4l-0.6,1.2   l-0.6,0.8l-0.4,0.8l-0.7,0.4l-0.9,0.2l-1.2-0.7l-0.1-0.7l-0.8-0.5l-0.9-0.2l-0.6-1l-0.6-0.2l-0.5-0.7l-0.7,0.3l0.1-0.5h-0.4   l-0.4-0.6l-1.3-1l-0.1-0.5l0.3-0.1l0.6-0.9l0.3-0.1v-0.4l0.7-0.7l-0.7,0.1l0.2-0.9l0.5-0.4l0.5,0.3l0.3-0.7l-0.1-0.3l0.6-0.4   l0.4-0.5l-0.1-0.2l-0.4-0.1l-0.2-0.4l-0.6,0.1l0.2,0.4l-0.1,0.4l-0.5,0.1l-0.1-0.4l-0.1-0.3l-0.5,0.1l0.6-0.5v-0.4l-0.4,0.3   l-0.6,0.3l-0.6,0.5l-0.5-0.7l-0.4,0.2h-0.4h-0.3l-0.3-0.4l-0.2-0.3l-0.7,0.3l-0.7-0.4l-0.3-0.7l-0.4,0.4l-0.4-1.1l-0.3,0.2H540.425   z M590.725,258.225l-1.2,0.8l-0.5,0.1l-1.8,1.7l-0.9,0.5l-1.4,0.6l-0.2,0.2l-1.7,0.8l-0.4,0.1l-1.5,0.7   l-0.9,0.1l-2.5,1.6l-1.2,0.6l-1,0.7l-0.2,0.6l-1.2,0.3v0.7l0.9,0.1l0.4-0.2h0.1l0.1,0.5l0.5-0.1l0.2,0.5l0.6,0.1h0.8l1.1-0.4   l0.1-0.2l1-0.4l0.6-0.4l0.8-0.2v-0.2l0.8-0.6l0.5-0.5l0.9-0.5l1.3-1.4l2.5-1l0.3-0.2l0.5,0.3l0.4-0.1l0.3-0.4l-0.4-0.2l0.2-0.3   l0.5-0.5l1.2-0.6l1.1-0.8l0.5-0.1l1.9-1.4l0.1-0.7l0.3-0.3l0.6-0.7l-2.3,0.7l0.6-1h-0.4l0.2-0.6l-1.3,0.6L590.725,258.225z M601.325,243.725l-0.7,0.1l0.3,1.2l-0.4,0.3l0.3,1.9v0.6l0.1,0.9l-0.2,0.5l-0.1,0.8l-0.3,0.9l-0.7,0.6   l-1,1.4l-0.5,0.3l-0.5,0.1l-0.8,0.4l-0.3,0.3l-0.1,0.4l0.5,0.2l0.4,0.5l0.3,0.1l0.1,0.5l-0.1,0.4l-0.6,0.7l-1.1,0.8l-0.8,0.5   l0.7,0.2l-0.2,0.5l1.9-0.8l1.3-1.1l0.8-0.4l0.4-0.4l0.6-0.4l1.1-1l-0.1-0.4l0.8-0.6l0.7-0.3l0.7,0.3l0.2-0.2v-0.2l0.5-0.6l0.7-0.3   l0.4-0.3l0.5-0.9l0.9-0.6l-0.3-0.3l-0.6-0.1l-0.5,0.4l-0.7,0.4l-0.9,0.3l-1.4-0.9l0.2-0.3l0.7-1.5l-0.4-0.5l-0.5,0.7l-0.2,0.6   l-0.4,0.1l0.1-0.5h-0.7l0.6-1.1l0.2-0.3l-0.2-0.6l0.4-0.4v-0.4l0.2-0.1v-0.8l-0.3,0.1l-0.2-0.5h-0.5v-0.4l-0.4,0.1L601.325,243.725z">
			</path>
		</a>
	</g>
</svg>